<svg xmlns="http://www.w3.org/2000/svg" width="50" viewBox="0 0 37.5 37.5" height="50" version="1.0"><defs><clipPath id="a"><path d="M0 0h37.008v37.008H0Zm0 0"/></clipPath><clipPath id="b"><path d="M1.352.938h34.5v36h-34.5Zm0 0"/></clipPath><clipPath id="c"><path d="M21.168 17.71H5.77a.9.9 0 0 1-.868-1.14L9.13 1.594A.905.905 0 0 1 10 .937h15.395a.896.896 0 0 1 .867 1.141l-4.227 14.977a.904.904 0 0 1-.867.656Zm-10 11.31 2.176-7.715a.896.896 0 0 0-.867-1.137H4.562a.893.893 0 0 0-.867.652l-2.18 7.715a.899.899 0 0 0 .872 1.137H10.3a.9.9 0 0 0 .867-.652Zm4.004-8.2L10.945 35.8a.896.896 0 0 0 .867 1.138h15.399a.9.9 0 0 0 .867-.653l4.227-14.98a.896.896 0 0 0-.867-1.137H16.038a.9.9 0 0 0-.867.652ZM26.043 8.86l-2.18 7.71a.9.9 0 0 0 .871 1.14h7.914c.403 0 .758-.269.868-.655l2.175-7.711a.896.896 0 0 0-.867-1.137H26.91a.893.893 0 0 0-.867.652Zm0 0"/></clipPath><linearGradient x1="114.296" gradientTransform="matrix(.0724 0 0 .072 1.483 .939)" y1="-47.634" x2="358.616" gradientUnits="userSpaceOnUse" y2="547.62" id="d"><stop stop-color="#28D5C1" offset="0"/><stop stop-color="#28D5C1" offset=".063"/><stop stop-color="#28D5C1" offset=".094"/><stop stop-color="#28D5C2" offset=".102"/><stop stop-color="#28D5C2" offset=".109"/><stop stop-color="#28D5C3" offset=".117"/><stop stop-color="#28D5C4" offset=".125"/><stop stop-color="#27D5C4" offset=".133"/><stop stop-color="#27D5C5" offset=".141"/><stop stop-color="#27D5C6" offset=".148"/><stop stop-color="#27D5C6" offset=".156"/><stop stop-color="#27D5C7" offset=".164"/><stop stop-color="#27D5C7" offset=".172"/><stop stop-color="#27D6C8" offset=".18"/><stop stop-color="#27D6C9" offset=".188"/><stop stop-color="#26D6C9" offset=".195"/><stop stop-color="#26D6CA" offset=".203"/><stop stop-color="#26D6CB" offset=".211"/><stop stop-color="#26D6CB" offset=".219"/><stop stop-color="#26D6CC" offset=".227"/><stop stop-color="#26D6CD" offset=".234"/><stop stop-color="#26D6CD" offset=".242"/><stop stop-color="#26D6CE" offset=".25"/><stop stop-color="#25D6CF" offset=".258"/><stop stop-color="#25D6CF" offset=".266"/><stop stop-color="#25D6D0" offset=".273"/><stop stop-color="#25D6D1" offset=".281"/><stop stop-color="#25D6D1" offset=".281"/><stop stop-color="#25D6D1" offset=".289"/><stop stop-color="#25D6D2" offset=".297"/><stop stop-color="#25D6D3" offset=".305"/><stop stop-color="#25D6D3" offset=".313"/><stop stop-color="#24D6D4" offset=".32"/><stop stop-color="#24D7D5" offset=".328"/><stop stop-color="#24D7D5" offset=".336"/><stop stop-color="#24D7D6" offset=".344"/><stop stop-color="#24D7D7" offset=".352"/><stop stop-color="#24D7D7" offset=".359"/><stop stop-color="#24D7D8" offset=".367"/><stop stop-color="#24D7D8" offset=".375"/><stop stop-color="#23D7D9" offset=".383"/><stop stop-color="#23D7DA" offset=".391"/><stop stop-color="#23D7DA" offset=".398"/><stop stop-color="#23D7DB" offset=".406"/><stop stop-color="#23D7DC" offset=".414"/><stop stop-color="#23D7DC" offset=".422"/><stop stop-color="#23D7DD" offset=".43"/><stop stop-color="#22D7DE" offset=".438"/><stop stop-color="#22D7DE" offset=".445"/><stop stop-color="#22D7DF" offset=".453"/><stop stop-color="#22D7E0" offset=".461"/><stop stop-color="#22D7E0" offset=".469"/><stop stop-color="#22D8E1" offset=".477"/><stop stop-color="#22D8E2" offset=".484"/><stop stop-color="#22D8E2" offset=".492"/><stop stop-color="#21D8E3" offset=".5"/><stop stop-color="#21D8E4" offset=".508"/><stop stop-color="#21D8E4" offset=".516"/><stop stop-color="#21D8E5" offset=".523"/><stop stop-color="#21D8E6" offset=".531"/><stop stop-color="#21D8E6" offset=".539"/><stop stop-color="#21D8E7" offset=".547"/><stop stop-color="#21D8E7" offset=".555"/><stop stop-color="#20D8E8" offset=".563"/><stop stop-color="#20D8E9" offset=".57"/><stop stop-color="#20D8E9" offset=".578"/><stop stop-color="#20D8EA" offset=".586"/><stop stop-color="#20D8EB" offset=".594"/><stop stop-color="#20D8EB" offset=".602"/><stop stop-color="#20D8EC" offset=".609"/><stop stop-color="#20D9ED" offset=".617"/><stop stop-color="#1FD9ED" offset=".625"/><stop stop-color="#1FD9EE" offset=".633"/><stop stop-color="#1FD9EF" offset=".641"/><stop stop-color="#1FD9EF" offset=".648"/><stop stop-color="#1FD9F0" offset=".656"/><stop stop-color="#1FD9F1" offset=".664"/><stop stop-color="#1FD9F1" offset=".672"/><stop stop-color="#1FD9F2" offset=".68"/><stop stop-color="#1ED9F3" offset=".688"/><stop stop-color="#1ED9F3" offset=".695"/><stop stop-color="#1ED9F4" offset=".703"/><stop stop-color="#1ED9F5" offset=".711"/><stop stop-color="#1ED9F5" offset=".719"/><stop stop-color="#1ED9F6" offset=".719"/><stop stop-color="#1ED9F6" offset=".727"/><stop stop-color="#1ED9F7" offset=".734"/><stop stop-color="#1ED9F7" offset=".742"/><stop stop-color="#1DD9F8" offset=".75"/><stop stop-color="#1DD9F8" offset=".758"/><stop stop-color="#1DDAF9" offset=".766"/><stop stop-color="#1DDAFA" offset=".773"/><stop stop-color="#1DDAFA" offset=".781"/><stop stop-color="#1DDAFB" offset=".789"/><stop stop-color="#1DDAFC" offset=".797"/><stop stop-color="#1DDAFC" offset=".805"/><stop stop-color="#1CDAFD" offset=".813"/><stop stop-color="#1CDAFE" offset=".82"/><stop stop-color="#1CDAFE" offset=".828"/><stop stop-color="#1CDAFF" offset=".844"/><stop stop-color="#1CDAFF" offset=".875"/><stop stop-color="#1CDAFF" offset="1"/></linearGradient></defs><g clip-path="url(#a)" fill="#FFF"><path d="M0 0h37.5v127.5H0Zm0 0"/><path d="M0 0h37.5v37.5H0Zm0 0"/><path d="M0 0h37.5v37.5H0Zm0 0"/><path d="M0 0h37.5v37.5H0Zm0 0"/></g><g clip-path="url(#b)"><g clip-path="url(#c)"><path fill="url(#d)" d="M1.355.938v36h34.497v-36Zm0 0"/></g></g></svg>