<svg xmlns="http://www.w3.org/2000/svg" xmlns:xlink="http://www.w3.org/1999/xlink" width="120" zoomAndPan="magnify" viewBox="0 0 90 44.999999" height="60" preserveAspectRatio="xMidYMid meet" version="1.0"><defs><g/><clipPath id="id1"><path d="M 0 13.730469 L 15 13.730469 L 15 29.480469 L 0 29.480469 Z M 0 13.730469 " clip-rule="nonzero"/></clipPath><clipPath id="id2"><path d="M 8.617188 21.066406 L 1.921875 21.066406 C 1.664062 21.066406 1.476562 20.820312 1.546875 20.570312 L 3.382812 14.015625 C 3.429688 13.847656 3.585938 13.730469 3.761719 13.730469 L 10.453125 13.730469 C 10.714844 13.730469 10.902344 13.976562 10.832031 14.226562 L 8.992188 20.78125 C 8.945312 20.949219 8.792969 21.066406 8.617188 21.066406 Z M 4.269531 26.015625 L 5.214844 22.640625 C 5.285156 22.390625 5.097656 22.140625 4.839844 22.140625 L 1.398438 22.140625 C 1.222656 22.140625 1.066406 22.257812 1.019531 22.429688 L 0.0742188 25.800781 C 0.00390625 26.050781 0.191406 26.300781 0.453125 26.300781 L 3.890625 26.300781 C 4.066406 26.300781 4.222656 26.183594 4.269531 26.015625 Z M 6.011719 22.429688 L 4.171875 28.980469 C 4.101562 29.230469 4.289062 29.480469 4.550781 29.480469 L 11.242188 29.480469 C 11.417969 29.480469 11.574219 29.363281 11.621094 29.195312 L 13.457031 22.640625 C 13.527344 22.390625 13.339844 22.140625 13.082031 22.140625 L 6.386719 22.140625 C 6.210938 22.140625 6.058594 22.257812 6.011719 22.429688 Z M 10.734375 17.195312 L 9.789062 20.570312 C 9.71875 20.820312 9.90625 21.066406 10.164062 21.066406 L 13.605469 21.066406 C 13.78125 21.066406 13.9375 20.949219 13.984375 20.78125 L 14.929688 17.40625 C 15 17.15625 14.8125 16.910156 14.550781 16.910156 L 11.113281 16.910156 C 10.9375 16.910156 10.78125 17.027344 10.734375 17.195312 Z M 10.734375 17.195312 " clip-rule="nonzero"/></clipPath><linearGradient x1="114.296434" gradientTransform="matrix(0.031475, 0, 0, 0.0315, 0.0593064, 13.729801)" y1="-47.633991" x2="358.621817" gradientUnits="userSpaceOnUse" y2="547.633937" id="id3"><stop stop-opacity="1" stop-color="rgb(15.699768%, 83.499146%, 75.698853%)" offset="0"/><stop stop-opacity="1" stop-color="rgb(15.699768%, 83.499146%, 75.698853%)" offset="0.0625"/><stop stop-opacity="1" stop-color="rgb(15.690613%, 83.502197%, 75.746155%)" offset="0.09375"/><stop stop-opacity="1" stop-color="rgb(15.655518%, 83.517456%, 75.921631%)" offset="0.101563"/><stop stop-opacity="1" stop-color="rgb(15.606689%, 83.538818%, 76.177979%)" offset="0.109375"/><stop stop-opacity="1" stop-color="rgb(15.556335%, 83.560181%, 76.434326%)" offset="0.117188"/><stop stop-opacity="1" stop-color="rgb(15.507507%, 83.580017%, 76.690674%)" offset="0.125"/><stop stop-opacity="1" stop-color="rgb(15.457153%, 83.601379%, 76.947021%)" offset="0.132812"/><stop stop-opacity="1" stop-color="rgb(15.408325%, 83.622742%, 77.203369%)" offset="0.140625"/><stop stop-opacity="1" stop-color="rgb(15.357971%, 83.644104%, 77.458191%)" offset="0.148438"/><stop stop-opacity="1" stop-color="rgb(15.309143%, 83.665466%, 77.714539%)" offset="0.15625"/><stop stop-opacity="1" stop-color="rgb(15.258789%, 83.686829%, 77.970886%)" offset="0.164063"/><stop stop-opacity="1" stop-color="rgb(15.209961%, 83.706665%, 78.227234%)" offset="0.171875"/><stop stop-opacity="1" stop-color="rgb(15.159607%, 83.728027%, 78.483582%)" offset="0.179688"/><stop stop-opacity="1" stop-color="rgb(15.110779%, 83.74939%, 78.739929%)" offset="0.1875"/><stop stop-opacity="1" stop-color="rgb(15.061951%, 83.770752%, 78.996277%)" offset="0.195312"/><stop stop-opacity="1" stop-color="rgb(15.011597%, 83.792114%, 79.251099%)" offset="0.203125"/><stop stop-opacity="1" stop-color="rgb(14.962769%, 83.811951%, 79.507446%)" offset="0.210937"/><stop stop-opacity="1" stop-color="rgb(14.912415%, 83.833313%, 79.763794%)" offset="0.21875"/><stop stop-opacity="1" stop-color="rgb(14.863586%, 83.854675%, 80.020142%)" offset="0.226562"/><stop stop-opacity="1" stop-color="rgb(14.813232%, 83.876038%, 80.276489%)" offset="0.234375"/><stop stop-opacity="1" stop-color="rgb(14.764404%, 83.8974%, 80.532837%)" offset="0.242188"/><stop stop-opacity="1" stop-color="rgb(14.71405%, 83.917236%, 80.789185%)" offset="0.25"/><stop stop-opacity="1" stop-color="rgb(14.665222%, 83.938599%, 81.044006%)" offset="0.257812"/><stop stop-opacity="1" stop-color="rgb(14.614868%, 83.959961%, 81.300354%)" offset="0.265625"/><stop stop-opacity="1" stop-color="rgb(14.56604%, 83.981323%, 81.556702%)" offset="0.273438"/><stop stop-opacity="1" stop-color="rgb(14.515686%, 84.002686%, 81.813049%)" offset="0.281145"/><stop stop-opacity="1" stop-color="rgb(14.491272%, 84.013367%, 81.941223%)" offset="0.28125"/><stop stop-opacity="1" stop-color="rgb(14.466858%, 84.024048%, 82.069397%)" offset="0.289062"/><stop stop-opacity="1" stop-color="rgb(14.416504%, 84.043884%, 82.325745%)" offset="0.296875"/><stop stop-opacity="1" stop-color="rgb(14.367676%, 84.065247%, 82.582092%)" offset="0.304688"/><stop stop-opacity="1" stop-color="rgb(14.318848%, 84.086609%, 82.836914%)" offset="0.3125"/><stop stop-opacity="1" stop-color="rgb(14.268494%, 84.107971%, 83.093262%)" offset="0.320313"/><stop stop-opacity="1" stop-color="rgb(14.219666%, 84.129333%, 83.349609%)" offset="0.328125"/><stop stop-opacity="1" stop-color="rgb(14.169312%, 84.14917%, 83.605957%)" offset="0.335938"/><stop stop-opacity="1" stop-color="rgb(14.120483%, 84.170532%, 83.862305%)" offset="0.34375"/><stop stop-opacity="1" stop-color="rgb(14.070129%, 84.191895%, 84.118652%)" offset="0.351563"/><stop stop-opacity="1" stop-color="rgb(14.021301%, 84.213257%, 84.375%)" offset="0.359375"/><stop stop-opacity="1" stop-color="rgb(13.970947%, 84.234619%, 84.629822%)" offset="0.367188"/><stop stop-opacity="1" stop-color="rgb(13.922119%, 84.255981%, 84.886169%)" offset="0.375"/><stop stop-opacity="1" stop-color="rgb(13.871765%, 84.275818%, 85.142517%)" offset="0.382813"/><stop stop-opacity="1" stop-color="rgb(13.822937%, 84.29718%, 85.398865%)" offset="0.390625"/><stop stop-opacity="1" stop-color="rgb(13.772583%, 84.318542%, 85.655212%)" offset="0.398438"/><stop stop-opacity="1" stop-color="rgb(13.723755%, 84.339905%, 85.91156%)" offset="0.40625"/><stop stop-opacity="1" stop-color="rgb(13.673401%, 84.361267%, 86.167908%)" offset="0.414063"/><stop stop-opacity="1" stop-color="rgb(13.624573%, 84.381104%, 86.424255%)" offset="0.421875"/><stop stop-opacity="1" stop-color="rgb(13.575745%, 84.402466%, 86.679077%)" offset="0.429688"/><stop stop-opacity="1" stop-color="rgb(13.525391%, 84.423828%, 86.935425%)" offset="0.4375"/><stop stop-opacity="1" stop-color="rgb(13.476562%, 84.44519%, 87.191772%)" offset="0.445312"/><stop stop-opacity="1" stop-color="rgb(13.426208%, 84.466553%, 87.44812%)" offset="0.453125"/><stop stop-opacity="1" stop-color="rgb(13.37738%, 84.487915%, 87.704468%)" offset="0.460938"/><stop stop-opacity="1" stop-color="rgb(13.327026%, 84.507751%, 87.960815%)" offset="0.46875"/><stop stop-opacity="1" stop-color="rgb(13.278198%, 84.529114%, 88.217163%)" offset="0.476562"/><stop stop-opacity="1" stop-color="rgb(13.227844%, 84.550476%, 88.471985%)" offset="0.484375"/><stop stop-opacity="1" stop-color="rgb(13.179016%, 84.571838%, 88.728333%)" offset="0.492188"/><stop stop-opacity="1" stop-color="rgb(13.128662%, 84.593201%, 88.98468%)" offset="0.5"/><stop stop-opacity="1" stop-color="rgb(13.079834%, 84.613037%, 89.241028%)" offset="0.507812"/><stop stop-opacity="1" stop-color="rgb(13.02948%, 84.634399%, 89.497375%)" offset="0.515625"/><stop stop-opacity="1" stop-color="rgb(12.980652%, 84.655762%, 89.753723%)" offset="0.523438"/><stop stop-opacity="1" stop-color="rgb(12.930298%, 84.677124%, 90.010071%)" offset="0.53125"/><stop stop-opacity="1" stop-color="rgb(12.88147%, 84.698486%, 90.264893%)" offset="0.539062"/><stop stop-opacity="1" stop-color="rgb(12.832642%, 84.718323%, 90.52124%)" offset="0.546875"/><stop stop-opacity="1" stop-color="rgb(12.782288%, 84.739685%, 90.777588%)" offset="0.554687"/><stop stop-opacity="1" stop-color="rgb(12.733459%, 84.761047%, 91.033936%)" offset="0.5625"/><stop stop-opacity="1" stop-color="rgb(12.683105%, 84.78241%, 91.290283%)" offset="0.570312"/><stop stop-opacity="1" stop-color="rgb(12.634277%, 84.803772%, 91.546631%)" offset="0.578125"/><stop stop-opacity="1" stop-color="rgb(12.583923%, 84.825134%, 91.802979%)" offset="0.585937"/><stop stop-opacity="1" stop-color="rgb(12.535095%, 84.844971%, 92.0578%)" offset="0.59375"/><stop stop-opacity="1" stop-color="rgb(12.484741%, 84.866333%, 92.314148%)" offset="0.601562"/><stop stop-opacity="1" stop-color="rgb(12.435913%, 84.887695%, 92.570496%)" offset="0.609375"/><stop stop-opacity="1" stop-color="rgb(12.385559%, 84.909058%, 92.826843%)" offset="0.617187"/><stop stop-opacity="1" stop-color="rgb(12.336731%, 84.93042%, 93.083191%)" offset="0.625"/><stop stop-opacity="1" stop-color="rgb(12.286377%, 84.950256%, 93.339539%)" offset="0.632812"/><stop stop-opacity="1" stop-color="rgb(12.237549%, 84.971619%, 93.595886%)" offset="0.640625"/><stop stop-opacity="1" stop-color="rgb(12.188721%, 84.992981%, 93.850708%)" offset="0.648438"/><stop stop-opacity="1" stop-color="rgb(12.138367%, 85.014343%, 94.107056%)" offset="0.65625"/><stop stop-opacity="1" stop-color="rgb(12.089539%, 85.035706%, 94.363403%)" offset="0.664062"/><stop stop-opacity="1" stop-color="rgb(12.039185%, 85.057068%, 94.619751%)" offset="0.671875"/><stop stop-opacity="1" stop-color="rgb(11.990356%, 85.076904%, 94.876099%)" offset="0.679688"/><stop stop-opacity="1" stop-color="rgb(11.940002%, 85.098267%, 95.132446%)" offset="0.6875"/><stop stop-opacity="1" stop-color="rgb(11.891174%, 85.119629%, 95.388794%)" offset="0.695313"/><stop stop-opacity="1" stop-color="rgb(11.84082%, 85.140991%, 95.643616%)" offset="0.703125"/><stop stop-opacity="1" stop-color="rgb(11.791992%, 85.162354%, 95.899963%)" offset="0.710938"/><stop stop-opacity="1" stop-color="rgb(11.741638%, 85.18219%, 96.156311%)" offset="0.71875"/><stop stop-opacity="1" stop-color="rgb(11.69281%, 85.203552%, 96.412659%)" offset="0.718855"/><stop stop-opacity="1" stop-color="rgb(11.668396%, 85.214233%, 96.540833%)" offset="0.726563"/><stop stop-opacity="1" stop-color="rgb(11.642456%, 85.224915%, 96.669006%)" offset="0.734375"/><stop stop-opacity="1" stop-color="rgb(11.593628%, 85.246277%, 96.925354%)" offset="0.742188"/><stop stop-opacity="1" stop-color="rgb(11.543274%, 85.267639%, 97.181702%)" offset="0.75"/><stop stop-opacity="1" stop-color="rgb(11.494446%, 85.287476%, 97.436523%)" offset="0.757813"/><stop stop-opacity="1" stop-color="rgb(11.445618%, 85.308838%, 97.692871%)" offset="0.765625"/><stop stop-opacity="1" stop-color="rgb(11.395264%, 85.3302%, 97.949219%)" offset="0.773438"/><stop stop-opacity="1" stop-color="rgb(11.346436%, 85.351562%, 98.205566%)" offset="0.78125"/><stop stop-opacity="1" stop-color="rgb(11.296082%, 85.372925%, 98.461914%)" offset="0.789063"/><stop stop-opacity="1" stop-color="rgb(11.247253%, 85.394287%, 98.718262%)" offset="0.796875"/><stop stop-opacity="1" stop-color="rgb(11.196899%, 85.414124%, 98.974609%)" offset="0.804688"/><stop stop-opacity="1" stop-color="rgb(11.148071%, 85.435486%, 99.229431%)" offset="0.8125"/><stop stop-opacity="1" stop-color="rgb(11.097717%, 85.456848%, 99.485779%)" offset="0.820312"/><stop stop-opacity="1" stop-color="rgb(11.048889%, 85.47821%, 99.742126%)" offset="0.828125"/><stop stop-opacity="1" stop-color="rgb(11.010742%, 85.493469%, 99.934387%)" offset="0.84375"/><stop stop-opacity="1" stop-color="rgb(10.998535%, 85.499573%, 100%)" offset="0.875"/><stop stop-opacity="1" stop-color="rgb(10.998535%, 85.499573%, 100%)" offset="1"/></linearGradient></defs><rect x="-9" width="108" fill="rgb(100%, 100%, 100%)" y="-4.5" height="53.999999" fill-opacity="1"/><rect x="-9" width="108" fill="rgb(100%, 100%, 100%)" y="-4.5" height="53.999999" fill-opacity="1"/><rect x="-9" width="108" fill="rgb(100%, 100%, 100%)" y="-4.5" height="53.999999" fill-opacity="1"/><rect x="-9" width="108" fill="rgb(100%, 100%, 100%)" y="-4.5" height="53.999999" fill-opacity="1"/><g clip-path="url(#id1)"><g clip-path="url(#id2)"><path fill="url(#id3)" d="M 0.00390625 13.730469 L 0.00390625 29.480469 L 15 29.480469 L 15 13.730469 Z M 0.00390625 13.730469 " fill-rule="nonzero"/></g></g><g fill="rgb(0%, 0%, 0%)" fill-opacity="1"><g transform="translate(14.785176, 26.554869)"><g><path d="M 6.1875 0 L 2.65625 -9.390625 L 2.59375 -9.390625 C 2.625 -9.078125 2.648438 -8.65625 2.671875 -8.125 C 2.691406 -7.601562 2.703125 -7.0625 2.703125 -6.5 L 2.703125 0 L 1.453125 0 L 1.453125 -10.703125 L 3.453125 -10.703125 L 6.75 -1.9375 L 6.8125 -1.9375 L 10.171875 -10.703125 L 12.15625 -10.703125 L 12.15625 0 L 10.8125 0 L 10.8125 -6.578125 C 10.8125 -7.097656 10.820312 -7.613281 10.84375 -8.125 C 10.875 -8.632812 10.898438 -9.050781 10.921875 -9.375 L 10.859375 -9.375 L 7.296875 0 Z M 6.1875 0 "/></g></g></g><g fill="rgb(0%, 0%, 0%)" fill-opacity="1"><g transform="translate(28.395057, 26.554869)"><g><path d="M 4.3125 -8.171875 C 5.300781 -8.171875 6.03125 -7.957031 6.5 -7.53125 C 6.96875 -7.101562 7.203125 -6.414062 7.203125 -5.46875 L 7.203125 0 L 6.234375 0 L 5.984375 -1.140625 L 5.921875 -1.140625 C 5.578125 -0.703125 5.207031 -0.375 4.8125 -0.15625 C 4.425781 0.0507812 3.894531 0.15625 3.21875 0.15625 C 2.488281 0.15625 1.882812 -0.0351562 1.40625 -0.421875 C 0.925781 -0.804688 0.6875 -1.410156 0.6875 -2.234375 C 0.6875 -3.035156 1 -3.648438 1.625 -4.078125 C 2.257812 -4.515625 3.234375 -4.753906 4.546875 -4.796875 L 5.90625 -4.84375 L 5.90625 -5.328125 C 5.90625 -5.992188 5.757812 -6.457031 5.46875 -6.71875 C 5.1875 -6.976562 4.78125 -7.109375 4.25 -7.109375 C 3.820312 -7.109375 3.414062 -7.046875 3.03125 -6.921875 C 2.65625 -6.796875 2.304688 -6.65625 1.984375 -6.5 L 1.578125 -7.484375 C 1.921875 -7.671875 2.332031 -7.832031 2.8125 -7.96875 C 3.300781 -8.101562 3.800781 -8.171875 4.3125 -8.171875 Z M 5.890625 -3.9375 L 4.703125 -3.890625 C 3.703125 -3.847656 3.007812 -3.6875 2.625 -3.40625 C 2.25 -3.125 2.0625 -2.726562 2.0625 -2.21875 C 2.0625 -1.769531 2.195312 -1.441406 2.46875 -1.234375 C 2.738281 -1.023438 3.09375 -0.921875 3.53125 -0.921875 C 4.195312 -0.921875 4.753906 -1.109375 5.203125 -1.484375 C 5.660156 -1.859375 5.890625 -2.429688 5.890625 -3.203125 Z M 5.890625 -3.9375 "/></g></g></g><g fill="rgb(0%, 0%, 0%)" fill-opacity="1"><g transform="translate(36.813078, 26.554869)"><g><path d="M 0.015625 -8.046875 L 1.421875 -8.046875 L 3.171875 -3.46875 C 3.316406 -3.050781 3.445312 -2.660156 3.5625 -2.296875 C 3.6875 -1.941406 3.78125 -1.601562 3.84375 -1.28125 L 3.90625 -1.28125 C 3.957031 -1.53125 4.046875 -1.851562 4.171875 -2.25 C 4.304688 -2.65625 4.445312 -3.066406 4.59375 -3.484375 L 6.21875 -8.046875 L 7.65625 -8.046875 L 4.1875 1.109375 C 3.894531 1.867188 3.53125 2.472656 3.09375 2.921875 C 2.65625 3.367188 2.046875 3.59375 1.265625 3.59375 C 1.023438 3.59375 0.8125 3.582031 0.625 3.5625 C 0.445312 3.539062 0.296875 3.515625 0.171875 3.484375 L 0.171875 2.4375 C 0.273438 2.445312 0.40625 2.460938 0.5625 2.484375 C 0.71875 2.503906 0.878906 2.515625 1.046875 2.515625 C 1.503906 2.515625 1.875 2.382812 2.15625 2.125 C 2.4375 1.863281 2.660156 1.519531 2.828125 1.09375 L 3.25 0.03125 Z M 0.015625 -8.046875 "/></g></g></g><g fill="rgb(0%, 0%, 0%)" fill-opacity="1"><g transform="translate(44.465823, 26.554869)"><g><path d="M 8 -8.046875 L 8 0 L 6.921875 0 L 6.71875 -1.0625 L 6.65625 -1.0625 C 6.394531 -0.644531 6.035156 -0.335938 5.578125 -0.140625 C 5.117188 0.0546875 4.628906 0.15625 4.109375 0.15625 C 3.140625 0.15625 2.410156 -0.078125 1.921875 -0.546875 C 1.429688 -1.015625 1.1875 -1.757812 1.1875 -2.78125 L 1.1875 -8.046875 L 2.515625 -8.046875 L 2.515625 -2.859375 C 2.515625 -1.578125 3.113281 -0.9375 4.3125 -0.9375 C 5.195312 -0.9375 5.8125 -1.1875 6.15625 -1.6875 C 6.5 -2.1875 6.671875 -2.910156 6.671875 -3.859375 L 6.671875 -8.046875 Z M 8 -8.046875 "/></g></g></g><g fill="rgb(0%, 0%, 0%)" fill-opacity="1"><g transform="translate(53.739149, 26.554869)"><g><path d="M 6.046875 -9.671875 C 4.890625 -9.671875 3.984375 -9.285156 3.328125 -8.515625 C 2.671875 -7.742188 2.34375 -6.691406 2.34375 -5.359375 C 2.34375 -4.023438 2.648438 -2.96875 3.265625 -2.1875 C 3.878906 -1.414062 4.800781 -1.03125 6.03125 -1.03125 C 6.488281 -1.03125 6.925781 -1.070312 7.34375 -1.15625 C 7.769531 -1.238281 8.1875 -1.335938 8.59375 -1.453125 L 8.59375 -0.28125 C 8.195312 -0.132812 7.785156 -0.0234375 7.359375 0.046875 C 6.929688 0.117188 6.421875 0.15625 5.828125 0.15625 C 4.742188 0.15625 3.835938 -0.0664062 3.109375 -0.515625 C 2.378906 -0.972656 1.832031 -1.613281 1.46875 -2.4375 C 1.101562 -3.269531 0.921875 -4.25 0.921875 -5.375 C 0.921875 -6.445312 1.113281 -7.394531 1.5 -8.21875 C 1.894531 -9.050781 2.476562 -9.695312 3.25 -10.15625 C 4.019531 -10.625 4.957031 -10.859375 6.0625 -10.859375 C 7.1875 -10.859375 8.171875 -10.648438 9.015625 -10.234375 L 8.46875 -9.09375 C 8.144531 -9.238281 7.78125 -9.367188 7.375 -9.484375 C 6.96875 -9.609375 6.523438 -9.671875 6.046875 -9.671875 Z M 6.046875 -9.671875 "/></g></g></g><g fill="rgb(0%, 0%, 0%)" fill-opacity="1"><g transform="translate(63.222549, 26.554869)"><g><path d="M 8.265625 -4.03125 C 8.265625 -2.707031 7.925781 -1.675781 7.25 -0.9375 C 6.570312 -0.207031 5.660156 0.15625 4.515625 0.15625 C 3.804688 0.15625 3.171875 -0.00390625 2.609375 -0.328125 C 2.054688 -0.660156 1.617188 -1.140625 1.296875 -1.765625 C 0.984375 -2.390625 0.828125 -3.144531 0.828125 -4.03125 C 0.828125 -5.363281 1.15625 -6.390625 1.8125 -7.109375 C 2.476562 -7.828125 3.394531 -8.1875 4.5625 -8.1875 C 5.28125 -8.1875 5.914062 -8.023438 6.46875 -7.703125 C 7.03125 -7.378906 7.46875 -6.910156 7.78125 -6.296875 C 8.101562 -5.679688 8.265625 -4.925781 8.265625 -4.03125 Z M 2.1875 -4.03125 C 2.1875 -3.082031 2.375 -2.328125 2.75 -1.765625 C 3.125 -1.210938 3.722656 -0.9375 4.546875 -0.9375 C 5.359375 -0.9375 5.953125 -1.210938 6.328125 -1.765625 C 6.710938 -2.328125 6.90625 -3.082031 6.90625 -4.03125 C 6.90625 -4.976562 6.710938 -5.722656 6.328125 -6.265625 C 5.953125 -6.804688 5.351562 -7.078125 4.53125 -7.078125 C 3.707031 -7.078125 3.109375 -6.804688 2.734375 -6.265625 C 2.367188 -5.722656 2.1875 -4.976562 2.1875 -4.03125 Z M 2.1875 -4.03125 "/></g></g></g><g fill="rgb(0%, 0%, 0%)" fill-opacity="1"><g transform="translate(72.300806, 26.554869)"><g><path d="M 4.125 0.15625 C 3.125 0.15625 2.320312 -0.191406 1.71875 -0.890625 C 1.125 -1.585938 0.828125 -2.625 0.828125 -4 C 0.828125 -5.382812 1.128906 -6.425781 1.734375 -7.125 C 2.335938 -7.832031 3.140625 -8.1875 4.140625 -8.1875 C 4.753906 -8.1875 5.257812 -8.070312 5.65625 -7.84375 C 6.050781 -7.613281 6.375 -7.332031 6.625 -7 L 6.71875 -7 C 6.695312 -7.132812 6.675781 -7.328125 6.65625 -7.578125 C 6.632812 -7.835938 6.625 -8.039062 6.625 -8.1875 L 6.625 -11.40625 L 7.953125 -11.40625 L 7.953125 0 L 6.890625 0 L 6.6875 -1.078125 L 6.625 -1.078125 C 6.382812 -0.734375 6.0625 -0.441406 5.65625 -0.203125 C 5.257812 0.0351562 4.75 0.15625 4.125 0.15625 Z M 4.328125 -0.9375 C 5.179688 -0.9375 5.78125 -1.171875 6.125 -1.640625 C 6.46875 -2.109375 6.640625 -2.8125 6.640625 -3.75 L 6.640625 -3.984375 C 6.640625 -4.984375 6.472656 -5.75 6.140625 -6.28125 C 5.816406 -6.820312 5.207031 -7.09375 4.3125 -7.09375 C 3.601562 -7.09375 3.070312 -6.8125 2.71875 -6.25 C 2.363281 -5.6875 2.1875 -4.925781 2.1875 -3.96875 C 2.1875 -3.007812 2.363281 -2.265625 2.71875 -1.734375 C 3.070312 -1.203125 3.609375 -0.9375 4.328125 -0.9375 Z M 4.328125 -0.9375 "/></g></g></g><g fill="rgb(0%, 0%, 0%)" fill-opacity="1"><g transform="translate(81.529117, 26.554869)"><g><path d="M 4.375 -8.1875 C 5.0625 -8.1875 5.65625 -8.035156 6.15625 -7.734375 C 6.65625 -7.441406 7.035156 -7.019531 7.296875 -6.46875 C 7.554688 -5.925781 7.6875 -5.289062 7.6875 -4.5625 L 7.6875 -3.765625 L 2.1875 -3.765625 C 2.207031 -2.859375 2.441406 -2.164062 2.890625 -1.6875 C 3.335938 -1.207031 3.957031 -0.96875 4.75 -0.96875 C 5.257812 -0.96875 5.710938 -1.015625 6.109375 -1.109375 C 6.503906 -1.210938 6.910156 -1.351562 7.328125 -1.53125 L 7.328125 -0.375 C 6.921875 -0.195312 6.515625 -0.0664062 6.109375 0.015625 C 5.710938 0.109375 5.238281 0.15625 4.6875 0.15625 C 3.925781 0.15625 3.253906 0 2.671875 -0.3125 C 2.085938 -0.625 1.632812 -1.082031 1.3125 -1.6875 C 0.988281 -2.300781 0.828125 -3.054688 0.828125 -3.953125 C 0.828125 -4.835938 0.972656 -5.59375 1.265625 -6.21875 C 1.554688 -6.851562 1.96875 -7.335938 2.5 -7.671875 C 3.039062 -8.015625 3.664062 -8.1875 4.375 -8.1875 Z M 4.359375 -7.109375 C 3.734375 -7.109375 3.238281 -6.90625 2.875 -6.5 C 2.507812 -6.09375 2.289062 -5.53125 2.21875 -4.8125 L 6.3125 -4.8125 C 6.300781 -5.488281 6.140625 -6.039062 5.828125 -6.46875 C 5.523438 -6.894531 5.035156 -7.109375 4.359375 -7.109375 Z M 4.359375 -7.109375 "/></g></g></g></svg>