<svg xmlns="http://www.w3.org/2000/svg" width="120" viewBox="0 0 90 90" height="120" version="1.0"><defs><clipPath id="d"><path d="M0 0h90v90H0Zm0 0"/></clipPath><clipPath id="c"><path d="M0 0h90v90H0z"/></clipPath><clipPath id="e"><path d="M.91 75H6v7H.91Zm0 0"/></clipPath><clipPath id="f"><path d="M.91 9H6v6H.91Zm0 0"/></clipPath><clipPath id="g"><path d="M15.07 24.207h60.45V32H15.07Zm0 0"/></clipPath><clipPath id="h"><path d="M40.371 22.738h9.902v9.75h-9.902Zm0 0"/></clipPath><filter x="0%" y="0%" width="100%" height="100%" id="a"><feColorMatrix values="0 0 0 0 1 0 0 0 0 1 0 0 0 0 1 0 0 0 1 0" color-interpolation-filters="sRGB"/></filter><mask id="b"><g filter="url(#a)"><path fill-opacity=".867" d="M-9-9H99V99H-9z"/></g></mask></defs><path fill="#F1E37D" d="M-9-9H99V99H-9z"/><g mask="url(#b)"><g clip-path="url(#c)"><g clip-path="url(#d)"><path fill="#FFF" d="M-19.8-19.8h129.6v129.6H-19.8z"/></g></g></g><path fill="#579D91" d="M23.07 7.852h44.887v-.946H23.07ZM7.766 67.973h.941v-45.68h-.941ZM82.324 67.973h.938v-45.68h-.938ZM23.07 83.36h44.887v-.946H23.07ZM82.324 11.438h.938V6.905h-4.508v.946h3.57v3.585M82.324 22.293h.938v-9.91h-.938ZM67.957 7.852h9.86v-.946h-9.86ZM83.242 4.734H80.38a2.806 2.806 0 0 1-1.625.903v.043h4.488v-.946M76.191 4.734h-3.886v.946h5.511v-.043a2.806 2.806 0 0 1-1.625-.903M84.523 12.383h-.043v5.566h.942v-3.937a2.82 2.82 0 0 1-.899-1.63M85.422 9.805V6.957h-.942v4.48h.043a2.83 2.83 0 0 1 .899-1.632"/><path fill="#DFB168" d="M81.059 3.32h5.77v5.801a2.659 2.659 0 0 1 .94 0V2.375h-6.71c.027.156.043.313.043.473 0 .16-.016.316-.043.472M85.484 11.438a1.89 1.89 0 0 0-.062.472c0 .16.023.32.062.473h2.286v-2.301a1.883 1.883 0 0 0-.47-.062c-.163 0-.32.023-.472.062v1.355h-1.344M78.754 4.676V3.32h1.348a1.89 1.89 0 0 0 .062-.472c0-.164-.023-.32-.062-.473h-2.286v2.3a1.857 1.857 0 0 0 .938 0M78.754 5.68h-.938v1.226h.938V5.68M78.754 11.438V7.851h-.938v4.53h4.508v-.944h-3.57M84.48 11.438h-1.218v.945h1.218v-.945"/><path fill="#DFB168" d="M77.816 7.852h.938v-.946h-.938ZM82.324 12.383h.938v-.945h-.938ZM77.816 5.637v.043h.47c-.161 0-.317-.016-.47-.043"/><path fill="#DFB168" d="M78.285 5.68h.469v-.043a2.648 2.648 0 0 1-.469.043M84.48 11.91v.473h.043a3.173 3.173 0 0 1-.043-.473M84.48 11.438v.472c0-.16.02-.32.043-.473h-.043M78.754 4.676v.058h1.625c.348-.386.59-.875.68-1.414h-.957a1.893 1.893 0 0 1-1.348 1.356M77.816 4.676a1.891 1.891 0 0 1-1.41-1.828c0-1.04.844-1.887 1.88-1.887.87 0 1.605.602 1.816 1.414h.957a2.82 2.82 0 0 0-2.774-2.36 2.826 2.826 0 0 0-2.816 2.833c0 .726.273 1.386.722 1.886h1.625v-.058M77.816 5.637v-.903h-1.625c.418.47.985.793 1.625.903M78.754 5.637a2.806 2.806 0 0 0 1.625-.903h-1.625v.903"/><path fill="#DFB168" d="M77.816 4.676v.058h.47c-.161 0-.321-.02-.47-.058M80.164 2.848c0 .164-.023.32-.062.472h.957c.027-.156.043-.312.043-.472 0-.16-.016-.317-.043-.473h-.957c.039.152.062.309.062.473"/><path fill="#DFB168" d="M78.285 4.734h.469v-.058c-.149.039-.309.058-.469.058M78.754 4.734h-.938v.903a2.648 2.648 0 0 0 .938 0v-.903M85.422 11.438h.062a1.888 1.888 0 0 1 1.344-1.356v-.96a2.77 2.77 0 0 0-1.406.683v1.633M89.176 11.91c0 1.04-.84 1.887-1.875 1.887a1.88 1.88 0 0 1-1.817-1.414h-.062v1.629c.5.453 1.156.73 1.879.73 1.55 0 2.816-1.273 2.816-2.832a2.83 2.83 0 0 0-2.347-2.789v.961c.804.211 1.406.95 1.406 1.828M84.523 12.383c.11.644.434 1.21.899 1.629v-1.63h-.899"/><path fill="#DFB168" d="M84.523 11.438h.899V9.805a2.83 2.83 0 0 0-.899 1.633M85.484 11.438h-.062v.472c0-.164.023-.32.062-.473M86.828 9.121v.961a1.89 1.89 0 0 1 .473-.062c.16 0 .316.023.469.062v-.96a2.648 2.648 0 0 0-.942 0"/><path fill="#DFB168" d="M85.422 12.383h.062a1.914 1.914 0 0 1-.062-.473v.473M85.422 11.438h-.899a3.08 3.08 0 0 0-.043.472c0 .16.02.317.043.473h.899v-.945"/><path fill="#579D91" d="M67.957 83.36h9.86v-.946h-9.86ZM83.262 78.828h-.938v3.586h-3.57v.945h4.508v-4.53M82.324 77.887h.938v-9.914h-.938ZM77.816 84.629v-.043h-5.511v.945h3.886a2.806 2.806 0 0 1 1.625-.902M80.379 85.531h2.863v-.945h-4.488v.043c.64.11 1.207.433 1.625.902M85.422 76.254v-3.938h-.942v5.57h.043a2.83 2.83 0 0 1 .899-1.632M85.422 83.484v-3.023a2.83 2.83 0 0 1-.899-1.633h-.043v4.656h.942"/><path fill="#DFB168" d="M78.754 84.586v-1.227h-.938v1.227h.938M86.828 81.148v5.797h-5.77a2.659 2.659 0 0 1 0 .945h6.712v-6.742c-.153.024-.31.04-.47.04-.163 0-.32-.016-.472-.04M78.754 85.594a1.859 1.859 0 0 0-.469-.063c-.16 0-.32.024-.469.063v2.297h2.286a1.89 1.89 0 0 0 .062-.473c0-.164-.023-.32-.062-.473h-1.348v-1.351M78.754 78.828h3.57v-.941h-4.508v4.527h.938v-3.586M85.484 78.828h1.344v1.356c.152.039.309.062.473.062.16 0 .316-.023.469-.062v-2.297h-2.286c-.039.148-.062.308-.062.468 0 .165.023.325.062.473M84.48 78.828v-.941h-1.218v.941h1.218"/><path fill="#DFB168" d="M77.816 83.36h.938v-.946h-.938ZM82.324 78.828h.938v-.941h-.938ZM78.754 84.586h-.469c.16 0 .317.02.469.043v-.043"/><path fill="#DFB168" d="M78.285 84.586h-.469v.043c.153-.024.309-.043.47-.043M84.523 77.887h-.043v.468c0-.16.02-.316.043-.468M84.48 78.355v.473h.043a3.08 3.08 0 0 1-.043-.473M87.3 75.527c-.722 0-1.378.274-1.878.727v1.633h.062a1.88 1.88 0 0 1 1.817-1.418c1.035 0 1.875.847 1.875 1.886 0 .88-.602 1.618-1.406 1.829v.964a2.835 2.835 0 0 0 2.347-2.793 2.827 2.827 0 0 0-2.816-2.828M85.484 78.828h-.062v1.633c.387.352.871.594 1.406.687v-.964a1.882 1.882 0 0 1-1.344-1.356M84.523 77.887h.899v-1.633a2.83 2.83 0 0 0-.899 1.633"/><path fill="#DFB168" d="M85.422 80.46v-1.632h-.899a2.83 2.83 0 0 0 .899 1.633M87.3 80.246a1.89 1.89 0 0 1-.472-.062v.964c.152.024.309.04.473.04.16 0 .316-.016.469-.04v-.964c-.153.039-.31.062-.47.062M85.484 77.887h-.062v.468c0-.16.023-.32.062-.468M85.422 78.355v.473h.062a1.865 1.865 0 0 1-.062-.473"/><path fill="#DFB168" d="M84.48 78.355c0 .165.02.32.043.473h.899v-.941h-.899a3.075 3.075 0 0 0-.043.468M78.754 85.531v.063c.656.172 1.18.691 1.348 1.351h.957a2.821 2.821 0 0 0-.68-1.414h-1.625M78.285 89.305a1.887 1.887 0 0 1-.469-3.71v-.064h-1.625c-.449.5-.722 1.16-.722 1.887a2.826 2.826 0 0 0 2.816 2.832 2.82 2.82 0 0 0 2.774-2.36h-.957a1.884 1.884 0 0 1-1.817 1.415M77.816 84.629c-.64.11-1.207.433-1.625.902h1.625v-.902M78.754 84.629v.902h1.625a2.806 2.806 0 0 0-1.625-.902"/><path fill="#DFB168" d="M81.059 86.945h-.957c.039.153.062.309.062.473 0 .164-.023.32-.062.473h.957a2.659 2.659 0 0 0 0-.946M78.754 85.594v-.063h-.469c.16 0 .32.024.469.063"/><path fill="#DFB168" d="M77.816 85.531v.063c.149-.04.309-.063.47-.063h-.47M78.754 85.531v-.902a3.075 3.075 0 0 0-.469-.043c-.16 0-.316.02-.469.043v.902h.938"/><path fill="#579D91" d="M8.707 78.828h-.941v4.531h4.507v-.945H8.707v-3.586M13.21 83.36h9.86v-.946h-9.86ZM7.766 77.887h.941v-9.914h-.941ZM14.836 85.531h3.828v-.945h-5.453v.043c.644.11 1.21.433 1.625.902M7.723 85.531h2.925a2.806 2.806 0 0 1 1.625-.902v-.043h-4.55v.945M6.504 77.887h.043v-5.57h-.942v3.937c.465.418.79.988.899 1.633M5.605 80.46v3.024h.942v-4.656h-.043a2.83 2.83 0 0 1-.899 1.633"/><path fill="#DFB168" d="M5.547 78.828c.039-.148.058-.308.058-.473 0-.16-.02-.32-.058-.468h-2.29v2.297c.153.039.31.062.473.062.16 0 .317-.023.47-.062v-1.356h1.347M9.969 86.945h-5.77v-5.797c-.152.024-.308.04-.469.04-.164 0-.316-.016-.472-.04v6.743h6.71a2.659 2.659 0 0 1 0-.946M6.547 78.828h1.219v-.941h-1.22v.941M12.273 78.828v3.586h.938v-4.527H8.707v.941h3.566M12.273 84.586h.938v-1.227h-.938v1.227M12.273 85.594v1.351h-1.347a1.89 1.89 0 0 0-.063.473c0 .164.024.32.063.473h2.285v-2.297a1.835 1.835 0 0 0-.469-.063c-.16 0-.316.024-.469.063"/><path fill="#DFB168" d="M12.273 83.36h.938v-.946h-.938ZM7.766 78.828h.941v-.941h-.941ZM5.605 78.828h-.058a1.893 1.893 0 0 1-1.348 1.356v.964a2.807 2.807 0 0 0 1.406-.687v-1.633"/><g clip-path="url(#e)"><path fill="#DFB168" d="M1.852 78.355c0-1.039.84-1.886 1.878-1.886.872 0 1.606.605 1.817 1.418h.058v-1.633a2.773 2.773 0 0 0-1.875-.727 2.828 2.828 0 0 0-2.82 2.828 2.835 2.835 0 0 0 2.348 2.793v-.964a1.888 1.888 0 0 1-1.406-1.829"/></g><path fill="#DFB168" d="M4.2 81.148v-.964c-.153.039-.31.062-.47.062a1.89 1.89 0 0 1-.472-.062v.964c.156.024.308.04.472.04.16 0 .317-.016.47-.04M5.605 78.828h.899a3.08 3.08 0 0 0 .043-.473c0-.16-.02-.316-.043-.468h-.899v.941M12.273 85.594v-.063h-1.625c-.347.39-.59.875-.68 1.414h.958c.172-.66.691-1.18 1.347-1.351M13.21 85.594a1.887 1.887 0 0 1-.468 3.71 1.884 1.884 0 0 1-1.816-1.413h-.957a2.823 2.823 0 0 0 2.773 2.359 2.826 2.826 0 0 0 2.817-2.832c0-.727-.274-1.387-.723-1.887H13.21v.063"/><path fill="#DFB168" d="M12.273 84.629c-.64.11-1.207.433-1.625.902h1.625v-.902M13.21 84.629v.902h1.626a2.782 2.782 0 0 0-1.625-.902"/><path fill="#DFB168" d="M12.273 85.531h.938v-.902a3.075 3.075 0 0 0-.469-.043c-.16 0-.316.02-.469.043v.902"/><path fill="#DFB168" d="M12.742 84.586h-.469v.043c.153-.024.309-.043.47-.043"/><path fill="#DFB168" d="M13.21 84.629v-.043h-.468c.16 0 .317.02.469.043M6.547 78.828v-.473c0 .165-.02.32-.043.473h.043M6.547 78.355v-.468h-.043c.023.152.043.308.043.468M6.504 78.828h-.899v1.633a2.83 2.83 0 0 0 .899-1.633M6.504 77.887a2.83 2.83 0 0 0-.899-1.633v1.633h.899M5.547 78.828h.058v-.473c0 .165-.02.325-.058.473M5.605 77.887h-.058c.039.148.058.308.058.468v-.468M12.742 85.531h-.469v.063c.153-.04.309-.063.47-.063"/><path fill="#DFB168" d="M13.21 85.594v-.063h-.468c.164 0 .32.024.469.063M10.863 87.418c0-.164.024-.32.063-.473h-.957a2.659 2.659 0 0 0 0 .945h.957a1.89 1.89 0 0 1-.063-.472"/><path fill="#579D91" d="M7.766 22.293h.941v-9.91h-.941ZM13.21 7.852h9.86v-.946h-9.86ZM7.766 11.438h.941V7.851h3.566v-.946H7.766v4.532M5.605 6.957v2.848c.465.418.79.988.899 1.633h.043V6.957h-.942M5.605 14.012v3.937h.942v-5.566h-.043a2.82 2.82 0 0 1-.899 1.629M13.21 5.637v.043h5.454v-.946h-3.828c-.414.47-.98.793-1.625.903M10.648 4.734H7.723v.946h4.55v-.043a2.806 2.806 0 0 1-1.625-.903"/><path fill="#DFB168" d="M5.547 11.438H4.199v-1.356a1.883 1.883 0 0 0-.469-.062c-.164 0-.32.023-.472.062v2.3h2.289a1.91 1.91 0 0 0 0-.944M6.547 11.438v.945h1.219v-.945h-1.22M12.273 11.438H8.707v.945h4.504V7.852h-.938v3.585M12.273 4.676a1.88 1.88 0 0 0 .938 0V2.375h-2.285a1.89 1.89 0 0 0-.063.473c0 .164.024.32.063.472h1.347v1.356M4.2 9.121v-5.8h5.769a2.727 2.727 0 0 1-.043-.473c0-.16.015-.317.043-.473H3.258v6.746a2.648 2.648 0 0 1 .941 0M12.273 5.68v1.226h.938V5.68h-.938M7.766 12.383h.941v-.945h-.941ZM12.273 7.852h.938v-.946h-.938Zm0 0"/><path fill="#DFB168" d="M6.547 11.91v-.473h-.043c.023.153.043.31.043.473"/><path fill="#DFB168" d="M6.504 12.383h.043v-.473c0 .16-.02.317-.043.473M12.742 5.68h.469v-.043a2.648 2.648 0 0 1-.469.043"/><path fill="#DFB168" d="M12.273 5.68h.47c-.161 0-.317-.016-.47-.043v.043M12.273 4.734v-.058a1.9 1.9 0 0 1-1.347-1.356h-.957c.09.54.332 1.028.68 1.414h1.624M12.742.96c1.035 0 1.88.849 1.88 1.888 0 .879-.602 1.617-1.411 1.828v.058h1.625c.45-.5.723-1.16.723-1.886A2.826 2.826 0 0 0 12.742.016 2.823 2.823 0 0 0 9.97 2.375h.957A1.884 1.884 0 0 1 12.742.961M12.273 5.637v-.903h-1.625c.418.47.985.793 1.625.903M13.21 5.637a2.782 2.782 0 0 0 1.626-.903H13.21v.903"/><path fill="#DFB168" d="M13.21 4.734v-.058c-.148.039-.304.058-.468.058h.469"/><path fill="#DFB168" d="M12.273 4.676v.058h.47c-.161 0-.317-.02-.47-.058M9.969 3.32h.957a1.89 1.89 0 0 1-.063-.472c0-.164.024-.32.063-.473h-.957a2.727 2.727 0 0 0-.043.473c0 .16.015.316.043.472M12.273 4.734v.903a2.648 2.648 0 0 0 .938 0v-.903h-.938"/><g clip-path="url(#f)"><path fill="#DFB168" d="M3.73 14.742c.72 0 1.38-.277 1.875-.73v-1.63h-.058a1.884 1.884 0 0 1-1.817 1.415 1.884 1.884 0 0 1-1.878-1.887c0-.879.597-1.617 1.406-1.828v-.96a2.832 2.832 0 0 0 .473 5.621"/></g><path fill="#DFB168" d="M5.547 11.438h.058V9.805A2.77 2.77 0 0 0 4.2 9.12v.961a1.9 1.9 0 0 1 1.348 1.355M5.605 9.805v1.633h.899a2.83 2.83 0 0 0-.899-1.633M6.504 12.383h-.899v1.629a2.82 2.82 0 0 0 .899-1.63M5.547 12.383h.058v-.473c0 .16-.02.32-.058.473M3.73 10.02c.16 0 .317.023.47.062v-.96a2.648 2.648 0 0 0-.942 0v.96a1.89 1.89 0 0 1 .472-.062"/><path fill="#DFB168" d="M5.605 11.91v-.473h-.058c.039.153.058.31.058.473"/><path fill="#DFB168" d="M6.547 11.91c0-.16-.02-.32-.043-.473h-.899v.946h.899c.023-.156.043-.313.043-.473"/><path d="M16.953 53.684h3.011v-7c0-1.586-.273-3.918-.43-5.504h.09l1.336 3.942 2.606 7.043h1.926l2.582-7.043 1.359-3.942h.09c-.156 1.586-.406 3.918-.406 5.504v7h3.058V36.922H28.46l-2.789 7.836c-.36 1.043-.656 2.153-1.02 3.239h-.113c-.34-1.086-.656-2.196-1.02-3.239l-2.85-7.836h-3.715ZM41.524 54c1.586 0 3.196-.542 4.442-1.402l-1.133-2.039c-.906.567-1.813.883-2.856.883-1.879 0-3.238-1.086-3.511-3.172h7.816c.09-.293.16-.906.16-1.52 0-3.507-1.812-6.07-5.3-6.07-3.036 0-5.915 2.563-5.915 6.684 0 4.168 2.766 6.637 6.297 6.637Zm-3.101-7.925c.25-1.86 1.425-2.813 2.761-2.813 1.633 0 2.403 1.09 2.403 2.813ZM49.179 53.684h3.308v-8.723c.95-.925 1.61-1.425 2.649-1.425 1.246 0 1.789.703 1.789 2.652v7.496h3.332v-7.906c0-3.195-1.18-5.098-3.918-5.098-1.723 0-3.016.906-4.125 1.996h-.09l-.227-1.675H49.18ZM67.458 54c1.742 0 2.965-.835 4.054-2.128h.09l.25 1.812h2.719V41.001h-3.332v8.562c-.86 1.133-1.54 1.586-2.582 1.586-1.223 0-1.766-.68-1.766-2.652V41H63.56v7.925c0 3.172 1.18 5.075 3.899 5.075Zm0 0"/><g clip-path="url(#g)"><path fill="#466F4F" d="M62.117 24.73c-.554.122-1.113.23-1.59.465a3.406 3.406 0 0 0-1.316 1.188c-.168.254-.313.512-.36.844-.023.144-.124.722.258.707.965-.043 1.594-.63 2.055-1.266.262-.363.906-1.688.992-1.898.004-.016-.023-.043-.039-.04Zm2.664 5.493a3.4 3.4 0 0 0-1.074-1.25c-.25-.18-.5-.332-.832-.399-.145-.027-.719-.156-.719.227-.004.965.559 1.613 1.176 2.101.352.278 1.648.98 1.855 1.075.02.007.047-.02.043-.04-.097-.554-.183-1.117-.394-1.597a.815.815 0 0 0-.055-.117Zm2.403-5.477c-.567-.008-1.137-.031-1.653.086a5.31 5.31 0 0 1-.125.035 3.406 3.406 0 0 0-1.433.817c-.223.21-.418.425-.547.738-.055.137-.29.676.086.75.953.18 1.699-.246 2.297-.762.34-.289 1.273-1.43 1.402-1.613.012-.016-.008-.05-.027-.05Zm2.023 4.617-.09-.093a3.409 3.409 0 0 0-1.43-.825c-.292-.09-.582-.152-.914-.105-.148.023-.734.09-.605.45.316.913 1.059 1.343 1.805 1.6.422.145 1.879.383 2.109.403.016 0 .035-.031.023-.047-.273-.492-.539-.996-.898-1.383Zm2.473-5.136c-.559.082-1.125.152-1.614.351-.039.02-.078.035-.117.055-.52.238-.945.597-1.281 1.039-.184.242-.344.488-.418.816-.031.145-.176.715.207.723.969.027 1.633-.516 2.14-1.117.286-.344 1.02-1.617 1.122-1.824.008-.016-.016-.047-.04-.043Zm3.836 6.863c-.336-.453-.668-.918-1.075-1.25-.035-.027-.066-.055-.101-.082a3.42 3.42 0 0 0-1.528-.633c-.3-.047-.593-.07-.917.02-.145.039-.715.183-.543.523.433.863 1.23 1.191 2 1.352.441.09 1.914.132 2.144.12.02 0 .031-.035.02-.05Zm-44.207-4.707a3.406 3.406 0 0 0-1.204-1.13l-.113-.058c-.476-.234-1.035-.343-1.586-.465-.02-.003-.047.024-.039.04.082.21.727 1.535.988 1.898.461.637 1.086 1.223 2.055 1.266.387.015.281-.563.258-.707-.047-.332-.191-.59-.36-.844Zm-3.664 2.191c-.332.067-.582.219-.832.399a3.4 3.4 0 0 0-1.13 1.367c-.214.48-.296 1.043-.394 1.598-.004.019.023.046.04.039.21-.094 1.507-.797 1.858-1.075.618-.488 1.18-1.136 1.176-2.101 0-.383-.574-.254-.718-.227Zm-.637-1.402c.375-.074.14-.613.086-.75-.13-.313-.324-.527-.547-.738a3.406 3.406 0 0 0-1.434-.817l-.125-.035c-.515-.117-1.086-.094-1.652-.086-.02 0-.04.035-.027.05.128.184 1.062 1.325 1.402 1.614.598.516 1.344.942 2.297.762Zm-3.262 1.168c-.332-.047-.621.015-.914.105a3.409 3.409 0 0 0-1.43.825c-.027.03-.058.062-.09.093-.359.387-.625.89-.898 1.383-.012.016.008.047.023.047.231-.02 1.688-.258 2.11-.402.746-.258 1.488-.688 1.805-1.602.128-.36-.457-.426-.606-.45Zm-1.476-1.852c-.07-.328-.23-.574-.418-.816a3.369 3.369 0 0 0-1.282-1.04c-.039-.019-.078-.034-.117-.054-.488-.2-1.055-.27-1.613-.351-.024-.004-.047.027-.04.043.102.207.837 1.48 1.122 1.824.508.601 1.172 1.144 2.14 1.117.383-.008.243-.578.208-.723ZM19 29.621c-.313.914-1.055 1.348-1.797 1.613-.422.149-1.875.395-2.105.414-.016.004-.036-.03-.028-.046.274-.493.535-1 .895-1.387a3.4 3.4 0 0 1 1.512-.93c.293-.09.578-.152.914-.11.148.02.73.083.609.446"/></g><path fill="#71A674" d="M67.383 29.586c-.281-.184-.52-.414-.66-.711-.008-.012-.012-.023-.016-.035-.004-.008-.004-.012-.008-.016v-.008c.985-.222 1.88.54 2.45 1.262.019.024.038.047.054.07-.633-.066-1.281-.214-1.82-.562Zm1.531-.035c-.379-.383-.832-.73-1.36-.88a1.822 1.822 0 0 0-.992 0 .075.075 0 0 0-.054.06l-.004.015v.031c.039.176.152.348.262.489.312.39.77.64 1.234.804.445.153.914.23 1.383.27.066.004.11-.078.074-.13a4.397 4.397 0 0 0-.543-.66Zm-44.02-4.211c.497.12.997.32 1.372.672.21.199.367.441.453.715h-.016c-.004 0-.004.003-.004.003h-.008c-.117.012-.25.008-.355-.007-.465-.067-.887-.317-1.238-.618a5.14 5.14 0 0 1-.793-.878c.195.023.39.062.59.113Zm.727 1.328c.317.16.68.266 1.035.238.063-.008.133-.015.192-.035.02-.004.03-.016.043-.027a.09.09 0 0 0 .02-.078c-.145-.578-.583-1.008-1.102-1.278a4.54 4.54 0 0 0-1.368-.414c-.105-.012-.21-.027-.316-.031-.063-.004-.11.074-.074.129.41.59.918 1.164 1.57 1.496Zm37.422 3.285a2.181 2.181 0 0 1-.297-.512c-.027-.07-.047-.144-.066-.218-.008-.028-.012-.059-.02-.086 0-.012 0-.024-.004-.035 0 0 0-.02-.004-.028 0-.023-.004-.047-.004-.074.528.059.965.383 1.278.797.273.36.472.77.617 1.195.012.028.02.059.031.09-.574-.273-1.14-.625-1.531-1.129Zm1.453.461c-.23-.484-.547-.957-.992-1.27a1.806 1.806 0 0 0-.941-.324c-.047-.004-.075.032-.079.07-.004.005-.004.008-.007.016-.02.172.027.367.086.528.164.472.503.859.89 1.168.367.289.781.52 1.211.71.066.028.148-.019.129-.097a4.593 4.593 0 0 0-.297-.8ZM20.277 25.06c.465.203.93.48 1.243.89.175.227.293.492.332.778h-.043c-.024-.004-.047-.004-.07-.008h-.02c0-.004 0-.004-.004-.004-.016 0-.027-.004-.047-.004a1.93 1.93 0 0 1-.203-.05c-.45-.141-.824-.466-1.121-.821a5.048 5.048 0 0 1-.63-.98c.192.05.38.12.563.199Zm.512 1.437c.285.211.625.367.984.399.067.003.133.003.2-.004.004 0 .007-.004.011-.008h.004l.024-.012v-.004c.008-.004.011-.012.015-.02 0-.003.004-.007.004-.011v-.016c0-.004.004-.008.004-.011-.05-.602-.402-1.09-.879-1.446a4.272 4.272 0 0 0-1.289-.636c-.094-.028-.191-.059-.289-.079-.078-.02-.133.059-.098.125.31.649.72 1.293 1.31 1.723Zm23.383 1.246c-.184.086-.363.168-.55.246-1.497.63-3.102.946-4.72 1.067-1.632.125-3.277.043-4.906-.13-1.809-.19-3.598-.488-5.398-.722-1.739-.23-3.508-.422-5.266-.367-1.352.043-2.844.297-3.789 1.352-.129.144-.34-.067-.211-.211.113-.125.234-.243.367-.352 1.086-.898 2.586-1.082 3.95-1.094 1.796-.015 3.593.188 5.37.43 1.79.242 3.57.535 5.364.707 1.64.156 3.293.21 4.933.055 1.621-.157 3.227-.535 4.704-1.235.171-.086.324.172.152.254ZM23.82 28.828c-.004.004-.004.008-.004.008l-.003.004c-.047.11-.118.223-.18.305-.293.367-.719.605-1.156.757a5.117 5.117 0 0 1-1.16.246c.117-.16.25-.308.39-.453.355-.367.777-.699 1.273-.847a1.67 1.67 0 0 1 .844-.032c-.004.004-.004.008-.004.012Zm.137-.156c-1.082-.309-2.082.488-2.707 1.285a3.86 3.86 0 0 0-.188.254c-.03.05.012.133.075.129.722-.059 1.472-.207 2.09-.606.293-.195.57-.453.718-.773a.66.66 0 0 0 .07-.184c.005-.011.005-.023 0-.03 0-.005 0-.009-.003-.013-.004-.027-.02-.054-.055-.062Zm-5.492.992a1.602 1.602 0 0 1-.184.316c-.289.372-.715.614-1.152.766a5.13 5.13 0 0 1-1.16.254c.12-.164.254-.316.394-.465.352-.363.774-.7 1.266-.848.277-.082.562-.097.84-.035 0 .004-.004.008-.004.012Zm.137-.16c-1.086-.3-2.075.504-2.7 1.308-.062.083-.129.165-.183.25-.031.051.011.137.074.13.719-.063 1.473-.22 2.082-.622.297-.191.57-.453.719-.777a.904.904 0 0 0 .07-.18v-.035c-.004-.004-.004-.004-.004-.008a.083.083 0 0 0-.058-.066Zm41.425-3.379c.34-.285.754-.508 1.164-.664.032-.016.063-.027.094-.04-.246.59-.574 1.165-1.066 1.583a1.822 1.822 0 0 1-.875.426h-.016c-.016.004-.023.004-.035.004h-.004c.035-.528.336-.973.738-1.309Zm-.855 1.477a.05.05 0 0 0 .023.003c.176.016.371-.043.532-.105.468-.188.843-.547 1.132-.95.282-.378.489-.808.66-1.245.024-.063-.046-.125-.105-.106-.27.078-.535.2-.785.328-.48.25-.941.586-1.234 1.047-.18.285-.282.61-.286.95 0 .042.028.07.063.078Zm5.656-1.977a4.173 4.173 0 0 1 1.387-.395c-.375.516-.828 1-1.403 1.29-.296.148-.62.242-.949.214-.011-.004-.027-.004-.039-.004l-.004-.003h-.015c.16-.504.554-.868 1.023-1.102Zm-1.156 1.246c.172.059.379.043.555.02.496-.075.945-.344 1.32-.664.355-.309.656-.672.922-1.055.039-.055-.012-.133-.074-.129a4.096 4.096 0 0 0-.84.137c-.528.133-1.055.351-1.446.734a1.805 1.805 0 0 0-.5.852.09.09 0 0 0 .02.078c.012.011.023.023.043.027Zm5.832-1.402c.367-.258.781-.45 1.21-.582.032-.008.063-.016.09-.028-.284.563-.648 1.114-1.16 1.489-.16.12-.34.222-.53.293-.071.023-.141.043-.216.058-.03.008-.062.012-.09.016h-.003c-.008.004-.016.004-.02.004-.012 0-.027.004-.039.004-.023.004-.05 0-.074.004.07-.524.41-.954.832-1.258Zm-1.016 1.367c.004.004.004.008.004.012.004.007.008.015.016.02v.003a.19.19 0 0 0 .027.012c.004.004.008.008.016.008.18.027.379-.012.55-.067.473-.148.876-.48 1.192-.855.305-.36.547-.77.746-1.196.035-.07-.02-.144-.098-.125-.273.059-.543.16-.8.274-.5.215-.98.52-1.309.96-.2.27-.32.59-.344.927-.004.003 0 .007 0 .011v.016Zm4.188 3.469a2.11 2.11 0 0 1-.508-.332 1.298 1.298 0 0 1-.25-.285l-.035-.063c.941-.352 1.937.29 2.594.93.023.02.043.043.066.066-.633.016-1.293-.047-1.867-.316Zm2.117.332a4.33 4.33 0 0 0-.621-.575c-.426-.332-.922-.617-1.465-.69a1.807 1.807 0 0 0-.984.132.07.07 0 0 0-.047.058v.012c.004.004.004.008.004.012v.016c.062.171.191.324.32.449.36.347.844.543 1.328.644.461.094.938.114 1.406.09.075-.004.11-.09.059-.148Zm-45.012-4.973c.453.23.895.543 1.18.969.16.242.254.515.273.8-.011 0-.027 0-.043-.003h-.011c.004 0 .004 0 0 0-.016-.004-.028-.004-.043-.008l-.078-.016c-.07-.02-.137-.039-.204-.066-.421-.164-.785-.512-1.054-.883a5.222 5.222 0 0 1-.567-1.035c.188.066.371.148.547.242Zm.399 1.461c.27.227.593.414.949.469.062.008.133.02.195.011.008 0 .016 0 .024-.003.035-.008.066-.036.062-.079-.004-.601-.324-1.117-.773-1.5a4.348 4.348 0 0 0-1.242-.722 2.536 2.536 0 0 0-.29-.102c-.054-.02-.128.043-.105.106.266.668.621 1.347 1.18 1.82Zm41.008 1.852c.128.144-.083.355-.211.21a3.479 3.479 0 0 0-.368-.351c-1.082-.895-2.62-1.012-3.968-1.008-1.809.008-3.61.219-5.395.465-1.773.246-3.543.531-5.328.691-1.629.149-3.277.192-4.906.016-1.614-.172-3.196-.563-4.664-1.258-.172-.082-.02-.34.152-.254.184.086.371.168.559.246 1.507.621 3.129.93 4.754 1.036 1.652.109 3.308.015 4.953-.168 1.804-.2 3.593-.497 5.394-.727 1.727-.223 3.492-.414 5.235-.328 1.367.066 2.843.371 3.793 1.43Zm-43.317.062c-.004.012-.004.02-.004.031l-.004.032-.004.03c-.004.016-.007.028-.007.044-.016.07-.036.137-.059.207-.148.437-.48.8-.84 1.09a5.092 5.092 0 0 1-1.008.609c.059-.191.133-.379.215-.555.215-.46.504-.922.926-1.218.234-.172.5-.278.785-.309v.04Zm.164-.148c-.004-.04-.027-.075-.078-.07-.605.03-1.11.37-1.473.835a4.344 4.344 0 0 0-.668 1.27 6.248 6.248 0 0 0-.09.289c-.019.078.063.125.13.098.656-.293 1.308-.68 1.757-1.258.219-.282.387-.614.426-.973.004-.059.012-.121.004-.176-.004-.008-.004-.011-.008-.015"/><g clip-path="url(#h)"><path fill="#A55C1D" d="M47.906 28.84c.633.562 1.047 1.344.719 2.406-1.102.246-1.844-.258-2.336-.965.047.844-.215 1.692-1.2 2.211-.956-.601-1.12-1.48-.972-2.328-.562.629-1.347 1.043-2.41.715-.254-1.098.254-1.836.965-2.328-.848.047-1.695-.215-2.219-1.196.606-.953 1.488-1.117 2.336-.964-.629-.563-1.047-1.348-.719-2.407 1.102-.25 1.844.258 2.34.961-.05-.84.215-1.687 1.2-2.207.956.602 1.12 1.48.968 2.328.567-.628 1.348-1.043 2.414-.714.25 1.097-.258 1.835-.965 2.328.844-.047 1.696.215 2.215 1.191-.601.953-1.484 1.121-2.336.969"/></g><path fill="#E6B366" d="M47.531 27.82c-.441.13-.914.16-1.367.075h-.008c-.078-.016-.136.054-.133.12 0 .005-.003.008-.003.012a.012.012 0 0 1 .003.008c.008.031.024.055.051.067.258.144.489.332.672.558.203.246.34.535.434.836a2.93 2.93 0 0 1-1.375-1.078c-.07-.105-.246-.043-.211.086.082.281.11.574.078.867a2.402 2.402 0 0 1-.285.895 2.724 2.724 0 0 1-.133-.368 2.829 2.829 0 0 1-.074-1.363c.02-.12-.145-.203-.211-.086-.145.254-.332.48-.559.668-.246.2-.535.34-.84.43.125-.34.332-.664.578-.934.149-.164.32-.312.504-.437.106-.07.043-.242-.086-.207-.285.078-.578.11-.87.078a2.444 2.444 0 0 1-.9-.285c.118-.055.243-.094.368-.133a2.86 2.86 0 0 1 1.371-.074c.121.023.203-.14.086-.207a2.376 2.376 0 0 1-.672-.559c-.199-.246-.34-.535-.43-.836a2.904 2.904 0 0 1 1.376 1.078c.07.102.246.043.207-.086a2.41 2.41 0 0 1-.079-.867c.036-.316.137-.617.29-.894.05.117.093.238.132.363.13.441.164.91.075 1.367-.024.117.14.203.207.086a2.26 2.26 0 0 1 .562-.668 2.44 2.44 0 0 1 .836-.434 2.863 2.863 0 0 1-1.082 1.375c-.102.067-.04.243.09.204.281-.079.578-.106.87-.075.313.032.618.137.895.285-.117.051-.238.094-.367.133Zm.664-.226a2.686 2.686 0 0 0-1.672-.414c.372-.344.66-.778.832-1.25.02-.055.04-.106.051-.16.008-.04 0-.082-.027-.11-.086-.078-.258.004-.352.031-.109.036-.218.079-.328.125a2.487 2.487 0 0 0-.515.313c-.145.11-.278.242-.395.383.016-.34-.023-.68-.121-1.008a2.637 2.637 0 0 0-.254-.617c-.043-.075-.152-.07-.195 0a2.678 2.678 0 0 0-.418 1.668 3.24 3.24 0 0 0-1.254-.832c-.055-.016-.106-.035-.16-.051-.04-.008-.086 0-.11.031-.078.082.004.254.032.348a2.669 2.669 0 0 0 .438.844c.112.144.241.273.386.386a3.157 3.157 0 0 0-1.012.125c-.21.059-.43.137-.617.254a.113.113 0 0 0 0 .195 2.732 2.732 0 0 0 1.672.415c-.371.343-.66.773-.836 1.25-.016.05-.035.105-.05.16-.009.035 0 .082.03.11.082.073.254-.005.348-.032a2.65 2.65 0 0 0 .332-.13 2.47 2.47 0 0 0 .906-.69c-.011.34.028.68.121 1.003.063.211.141.43.254.618a.117.117 0 0 0 .2 0 2.686 2.686 0 0 0 .417-1.664 3.161 3.161 0 0 0 1.414.878.105.105 0 0 0 .11-.027c.074-.082-.004-.254-.035-.348a2.995 2.995 0 0 0-.125-.328 2.487 2.487 0 0 0-.696-.906c.34.016.68-.027 1.008-.121.211-.063.43-.14.621-.254.075-.043.07-.148 0-.195"/><path fill="#F1E37D" d="M45.855 27.719a.509.509 0 0 1-1.015.011c0-.277.222-.507.504-.511a.506.506 0 0 1 .511.5"/></svg>