<svg xmlns="http://www.w3.org/2000/svg" xmlns:xlink="http://www.w3.org/1999/xlink" width="60" zoomAndPan="magnify" viewBox="0 0 45 44.999999" height="60" preserveAspectRatio="xMidYMid meet" version="1.0"><defs><filter x="0%" y="0%" width="100%" height="100%" id="id1"><feColorMatrix values="0 0 0 0 1 0 0 0 0 1 0 0 0 0 1 0 0 0 1 0" color-interpolation-filters="sRGB"/></filter><g/><mask id="id2"><g filter="url(#id1)"><rect x="-4.5" width="54" fill="rgb(0%, 0%, 0%)" y="-4.5" height="53.999999" fill-opacity="0.8667"/></g></mask><clipPath id="id3"><rect x="0" width="45" y="0" height="45"/></clipPath><clipPath id="id4"><path d="M 42 4 L 44.902344 4 L 44.902344 8 L 42 8 Z M 42 4 " clip-rule="nonzero"/></clipPath><clipPath id="id5"><path d="M 42 37 L 44.902344 37 L 44.902344 41 L 42 41 Z M 42 37 " clip-rule="nonzero"/></clipPath><clipPath id="id6"><path d="M 37 42 L 41 42 L 41 44.976562 L 37 44.976562 Z M 37 42 " clip-rule="nonzero"/></clipPath><clipPath id="id7"><path d="M 0.453125 37 L 3 37 L 3 41 L 0.453125 41 Z M 0.453125 37 " clip-rule="nonzero"/></clipPath><clipPath id="id8"><path d="M 4 42 L 8 42 L 8 44.976562 L 4 44.976562 Z M 4 42 " clip-rule="nonzero"/></clipPath><clipPath id="id9"><path d="M 0.453125 4 L 3 4 L 3 8 L 0.453125 8 Z M 0.453125 4 " clip-rule="nonzero"/></clipPath><clipPath id="id10"><path d="M 9.070312 9.078125 L 35.929688 9.078125 L 35.929688 12.710938 L 9.070312 12.710938 Z M 9.070312 9.078125 " clip-rule="nonzero"/></clipPath><clipPath id="id11"><path d="M 9 9 L 36 9 L 36 12.898438 L 9 12.898438 Z M 9 9 " clip-rule="nonzero"/></clipPath><clipPath id="id12"><path d="M 20.3125 8.398438 L 24.710938 8.398438 L 24.710938 12.898438 L 20.3125 12.898438 Z M 20.3125 8.398438 " clip-rule="nonzero"/></clipPath><clipPath id="id13"><path d="M 21 9 L 24 9 L 24 12.898438 L 21 12.898438 Z M 21 9 " clip-rule="nonzero"/></clipPath></defs><rect x="-4.5" width="54" fill="rgb(100%, 100%, 100%)" y="-4.5" height="53.999999" fill-opacity="1"/><rect x="-4.5" width="54" fill="rgb(100%, 100%, 100%)" y="-4.5" height="53.999999" fill-opacity="1"/><rect x="-4.5" width="54" fill="rgb(100%, 100%, 100%)" y="-4.5" height="53.999999" fill-opacity="1"/><rect x="-4.5" width="54" fill="rgb(100%, 100%, 100%)" y="-4.5" height="53.999999" fill-opacity="1"/><g mask="url(#id2)"><g transform="matrix(1, 0, 0, 1, 0, 0)"><g clip-path="url(#id3)"><path fill="rgb(100%, 100%, 100%)" d="M 0 0 L 44.976562 0 L 44.976562 44.976562 L 0 44.976562 L 0 0 " fill-opacity="1" fill-rule="nonzero"/></g></g></g><path fill="rgb(34.118652%, 61.569214%, 56.858826%)" d="M 11.496094 3.910156 L 33.863281 3.910156 L 33.863281 3.441406 L 11.496094 3.441406 Z M 11.496094 3.910156 " fill-opacity="1" fill-rule="nonzero"/><path fill="rgb(34.118652%, 61.569214%, 56.858826%)" d="M 3.871094 33.871094 L 4.335938 33.871094 L 4.335938 11.109375 L 3.871094 11.109375 Z M 3.871094 33.871094 " fill-opacity="1" fill-rule="nonzero"/><path fill="rgb(34.118652%, 61.569214%, 56.858826%)" d="M 41.019531 33.871094 L 41.488281 33.871094 L 41.488281 11.109375 L 41.019531 11.109375 Z M 41.019531 33.871094 " fill-opacity="1" fill-rule="nonzero"/><path fill="rgb(34.118652%, 61.569214%, 56.858826%)" d="M 11.496094 41.535156 L 33.863281 41.535156 L 33.863281 41.066406 L 11.496094 41.066406 Z M 11.496094 41.535156 " fill-opacity="1" fill-rule="nonzero"/><path fill="rgb(34.118652%, 61.569214%, 56.858826%)" d="M 41.019531 5.699219 L 41.488281 5.699219 L 41.488281 3.441406 L 39.242188 3.441406 L 39.242188 3.910156 L 41.019531 3.910156 L 41.019531 5.699219 " fill-opacity="1" fill-rule="nonzero"/><path fill="rgb(34.118652%, 61.569214%, 56.858826%)" d="M 41.019531 11.109375 L 41.488281 11.109375 L 41.488281 6.167969 L 41.019531 6.167969 Z M 41.019531 11.109375 " fill-opacity="1" fill-rule="nonzero"/><path fill="rgb(34.118652%, 61.569214%, 56.858826%)" d="M 33.863281 3.910156 L 38.773438 3.910156 L 38.773438 3.441406 L 33.863281 3.441406 Z M 33.863281 3.910156 " fill-opacity="1" fill-rule="nonzero"/><path fill="rgb(34.118652%, 61.569214%, 56.858826%)" d="M 41.476562 2.359375 L 40.050781 2.359375 C 39.84375 2.59375 39.5625 2.753906 39.242188 2.808594 L 39.242188 2.832031 L 41.476562 2.832031 L 41.476562 2.359375 " fill-opacity="1" fill-rule="nonzero"/><path fill="rgb(34.118652%, 61.569214%, 56.858826%)" d="M 37.964844 2.359375 L 36.027344 2.359375 L 36.027344 2.832031 L 38.773438 2.832031 L 38.773438 2.808594 C 38.457031 2.753906 38.171875 2.59375 37.964844 2.359375 " fill-opacity="1" fill-rule="nonzero"/><path fill="rgb(34.118652%, 61.569214%, 56.858826%)" d="M 42.117188 6.167969 L 42.097656 6.167969 L 42.097656 8.945312 L 42.5625 8.945312 L 42.5625 6.984375 C 42.332031 6.773438 42.171875 6.492188 42.117188 6.167969 " fill-opacity="1" fill-rule="nonzero"/><path fill="rgb(34.118652%, 61.569214%, 56.858826%)" d="M 42.5625 4.886719 L 42.5625 3.464844 L 42.097656 3.464844 L 42.097656 5.699219 L 42.117188 5.699219 C 42.171875 5.378906 42.332031 5.09375 42.5625 4.886719 " fill-opacity="1" fill-rule="nonzero"/><path fill="rgb(87.449646%, 69.40918%, 40.779114%)" d="M 40.390625 1.65625 L 43.265625 1.65625 L 43.265625 4.542969 C 43.34375 4.53125 43.417969 4.523438 43.5 4.523438 C 43.582031 4.523438 43.65625 4.53125 43.734375 4.542969 L 43.734375 1.183594 L 40.390625 1.183594 C 40.402344 1.261719 40.410156 1.339844 40.410156 1.417969 C 40.410156 1.5 40.402344 1.578125 40.390625 1.65625 " fill-opacity="1" fill-rule="nonzero"/><path fill="rgb(87.449646%, 69.40918%, 40.779114%)" d="M 42.59375 5.699219 C 42.574219 5.773438 42.5625 5.851562 42.5625 5.933594 C 42.5625 6.015625 42.574219 6.09375 42.59375 6.167969 L 43.734375 6.167969 L 43.734375 5.023438 C 43.660156 5.003906 43.582031 4.992188 43.5 4.992188 C 43.417969 4.992188 43.339844 5.003906 43.265625 5.023438 L 43.265625 5.699219 L 42.59375 5.699219 " fill-opacity="1" fill-rule="nonzero"/><path fill="rgb(87.449646%, 69.40918%, 40.779114%)" d="M 39.242188 2.328125 L 39.242188 1.65625 L 39.914062 1.65625 C 39.933594 1.578125 39.945312 1.5 39.945312 1.417969 C 39.945312 1.339844 39.933594 1.257812 39.914062 1.183594 L 38.773438 1.183594 L 38.773438 2.328125 C 38.847656 2.347656 38.929688 2.359375 39.007812 2.359375 C 39.089844 2.359375 39.167969 2.347656 39.242188 2.328125 " fill-opacity="1" fill-rule="nonzero"/><path fill="rgb(87.449646%, 69.40918%, 40.779114%)" d="M 39.242188 2.832031 L 38.773438 2.832031 L 38.773438 3.441406 L 39.242188 3.441406 L 39.242188 2.832031 " fill-opacity="1" fill-rule="nonzero"/><path fill="rgb(87.449646%, 69.40918%, 40.779114%)" d="M 39.242188 5.699219 L 39.242188 3.910156 L 38.773438 3.910156 L 38.773438 6.167969 L 41.019531 6.167969 L 41.019531 5.699219 L 39.242188 5.699219 " fill-opacity="1" fill-rule="nonzero"/><path fill="rgb(87.449646%, 69.40918%, 40.779114%)" d="M 42.097656 5.699219 L 41.488281 5.699219 L 41.488281 6.167969 L 42.097656 6.167969 L 42.097656 5.699219 " fill-opacity="1" fill-rule="nonzero"/><path fill="rgb(87.449646%, 69.40918%, 40.779114%)" d="M 38.773438 3.910156 L 39.242188 3.910156 L 39.242188 3.441406 L 38.773438 3.441406 Z M 38.773438 3.910156 " fill-opacity="1" fill-rule="nonzero"/><path fill="rgb(87.449646%, 69.40918%, 40.779114%)" d="M 41.019531 6.167969 L 41.488281 6.167969 L 41.488281 5.699219 L 41.019531 5.699219 Z M 41.019531 6.167969 " fill-opacity="1" fill-rule="nonzero"/><path fill="rgb(87.449646%, 69.40918%, 40.779114%)" d="M 38.773438 2.808594 L 38.773438 2.832031 L 39.007812 2.832031 C 38.929688 2.832031 38.851562 2.820312 38.773438 2.808594 " fill-opacity="1" fill-rule="nonzero"/><path fill="rgb(87.449646%, 69.40918%, 40.779114%)" d="M 39.007812 2.832031 L 39.242188 2.832031 L 39.242188 2.808594 C 39.167969 2.820312 39.089844 2.832031 39.007812 2.832031 " fill-opacity="1" fill-rule="nonzero"/><path fill="rgb(87.449646%, 69.40918%, 40.779114%)" d="M 42.097656 5.933594 L 42.097656 6.167969 L 42.117188 6.167969 C 42.105469 6.09375 42.097656 6.015625 42.097656 5.933594 " fill-opacity="1" fill-rule="nonzero"/><path fill="rgb(87.449646%, 69.40918%, 40.779114%)" d="M 42.097656 5.699219 L 42.097656 5.933594 C 42.097656 5.855469 42.105469 5.777344 42.117188 5.699219 L 42.097656 5.699219 " fill-opacity="1" fill-rule="nonzero"/><path fill="rgb(87.449646%, 69.40918%, 40.779114%)" d="M 39.242188 2.328125 L 39.242188 2.359375 L 40.050781 2.359375 C 40.226562 2.164062 40.34375 1.921875 40.390625 1.65625 L 39.914062 1.65625 C 39.828125 1.984375 39.570312 2.242188 39.242188 2.328125 " fill-opacity="1" fill-rule="nonzero"/><path fill="rgb(87.449646%, 69.40918%, 40.779114%)" d="M 38.773438 2.328125 C 38.371094 2.222656 38.074219 1.855469 38.074219 1.417969 C 38.074219 0.898438 38.492188 0.476562 39.007812 0.476562 C 39.445312 0.476562 39.808594 0.777344 39.914062 1.183594 L 40.390625 1.183594 C 40.277344 0.519531 39.703125 0.0078125 39.007812 0.0078125 C 38.234375 0.0078125 37.605469 0.640625 37.605469 1.417969 C 37.605469 1.78125 37.742188 2.109375 37.964844 2.359375 L 38.773438 2.359375 L 38.773438 2.328125 " fill-opacity="1" fill-rule="nonzero"/><path fill="rgb(87.449646%, 69.40918%, 40.779114%)" d="M 38.773438 2.808594 L 38.773438 2.359375 L 37.964844 2.359375 C 38.171875 2.59375 38.457031 2.753906 38.773438 2.808594 " fill-opacity="1" fill-rule="nonzero"/><path fill="rgb(87.449646%, 69.40918%, 40.779114%)" d="M 39.242188 2.808594 C 39.5625 2.753906 39.84375 2.59375 40.050781 2.359375 L 39.242188 2.359375 L 39.242188 2.808594 " fill-opacity="1" fill-rule="nonzero"/><path fill="rgb(87.449646%, 69.40918%, 40.779114%)" d="M 38.773438 2.328125 L 38.773438 2.359375 L 39.007812 2.359375 C 38.929688 2.359375 38.847656 2.347656 38.773438 2.328125 " fill-opacity="1" fill-rule="nonzero"/><path fill="rgb(87.449646%, 69.40918%, 40.779114%)" d="M 39.945312 1.417969 C 39.945312 1.5 39.933594 1.578125 39.914062 1.65625 L 40.390625 1.65625 C 40.402344 1.578125 40.410156 1.5 40.410156 1.417969 C 40.410156 1.339844 40.402344 1.261719 40.390625 1.183594 L 39.914062 1.183594 C 39.933594 1.257812 39.945312 1.339844 39.945312 1.417969 " fill-opacity="1" fill-rule="nonzero"/><path fill="rgb(87.449646%, 69.40918%, 40.779114%)" d="M 39.007812 2.359375 L 39.242188 2.359375 L 39.242188 2.328125 C 39.167969 2.347656 39.089844 2.359375 39.007812 2.359375 " fill-opacity="1" fill-rule="nonzero"/><path fill="rgb(87.449646%, 69.40918%, 40.779114%)" d="M 39.242188 2.359375 L 38.773438 2.359375 L 38.773438 2.808594 C 38.851562 2.820312 38.929688 2.832031 39.007812 2.832031 C 39.089844 2.832031 39.167969 2.820312 39.242188 2.808594 L 39.242188 2.359375 " fill-opacity="1" fill-rule="nonzero"/><path fill="rgb(87.449646%, 69.40918%, 40.779114%)" d="M 42.5625 5.699219 L 42.59375 5.699219 C 42.679688 5.371094 42.9375 5.109375 43.265625 5.023438 L 43.265625 4.542969 C 43 4.589844 42.757812 4.710938 42.5625 4.886719 L 42.5625 5.699219 " fill-opacity="1" fill-rule="nonzero"/><g clip-path="url(#id4)"><path fill="rgb(87.449646%, 69.40918%, 40.779114%)" d="M 44.4375 5.933594 C 44.4375 6.453125 44.015625 6.875 43.5 6.875 C 43.066406 6.875 42.699219 6.574219 42.59375 6.167969 L 42.5625 6.167969 L 42.5625 6.984375 C 42.8125 7.207031 43.140625 7.34375 43.5 7.34375 C 44.273438 7.34375 44.902344 6.710938 44.902344 5.933594 C 44.902344 5.238281 44.394531 4.65625 43.734375 4.542969 L 43.734375 5.023438 C 44.136719 5.128906 44.4375 5.496094 44.4375 5.933594 " fill-opacity="1" fill-rule="nonzero"/></g><path fill="rgb(87.449646%, 69.40918%, 40.779114%)" d="M 42.117188 6.167969 C 42.171875 6.492188 42.332031 6.773438 42.5625 6.984375 L 42.5625 6.167969 L 42.117188 6.167969 " fill-opacity="1" fill-rule="nonzero"/><path fill="rgb(87.449646%, 69.40918%, 40.779114%)" d="M 42.117188 5.699219 L 42.5625 5.699219 L 42.5625 4.886719 C 42.332031 5.09375 42.171875 5.378906 42.117188 5.699219 " fill-opacity="1" fill-rule="nonzero"/><path fill="rgb(87.449646%, 69.40918%, 40.779114%)" d="M 42.59375 5.699219 L 42.5625 5.699219 L 42.5625 5.933594 C 42.5625 5.851562 42.574219 5.773438 42.59375 5.699219 " fill-opacity="1" fill-rule="nonzero"/><path fill="rgb(87.449646%, 69.40918%, 40.779114%)" d="M 43.265625 4.542969 L 43.265625 5.023438 C 43.339844 5.003906 43.417969 4.992188 43.5 4.992188 C 43.582031 4.992188 43.660156 5.003906 43.734375 5.023438 L 43.734375 4.542969 C 43.65625 4.53125 43.582031 4.523438 43.5 4.523438 C 43.417969 4.523438 43.34375 4.53125 43.265625 4.542969 " fill-opacity="1" fill-rule="nonzero"/><path fill="rgb(87.449646%, 69.40918%, 40.779114%)" d="M 42.5625 6.167969 L 42.59375 6.167969 C 42.574219 6.09375 42.5625 6.015625 42.5625 5.933594 L 42.5625 6.167969 " fill-opacity="1" fill-rule="nonzero"/><path fill="rgb(87.449646%, 69.40918%, 40.779114%)" d="M 42.5625 5.699219 L 42.117188 5.699219 C 42.105469 5.777344 42.097656 5.855469 42.097656 5.933594 C 42.097656 6.015625 42.105469 6.09375 42.117188 6.167969 L 42.5625 6.167969 L 42.5625 5.699219 " fill-opacity="1" fill-rule="nonzero"/><path fill="rgb(34.118652%, 61.569214%, 56.858826%)" d="M 33.863281 41.535156 L 38.773438 41.535156 L 38.773438 41.066406 L 33.863281 41.066406 Z M 33.863281 41.535156 " fill-opacity="1" fill-rule="nonzero"/><path fill="rgb(34.118652%, 61.569214%, 56.858826%)" d="M 41.488281 39.28125 L 41.019531 39.28125 L 41.019531 41.066406 L 39.242188 41.066406 L 39.242188 41.535156 L 41.488281 41.535156 L 41.488281 39.28125 " fill-opacity="1" fill-rule="nonzero"/><path fill="rgb(34.118652%, 61.569214%, 56.858826%)" d="M 41.019531 38.808594 L 41.488281 38.808594 L 41.488281 33.871094 L 41.019531 33.871094 Z M 41.019531 38.808594 " fill-opacity="1" fill-rule="nonzero"/><path fill="rgb(34.118652%, 61.569214%, 56.858826%)" d="M 38.773438 42.171875 L 38.773438 42.148438 L 36.027344 42.148438 L 36.027344 42.617188 L 37.964844 42.617188 C 38.171875 42.386719 38.457031 42.222656 38.773438 42.171875 " fill-opacity="1" fill-rule="nonzero"/><path fill="rgb(34.118652%, 61.569214%, 56.858826%)" d="M 40.050781 42.617188 L 41.476562 42.617188 L 41.476562 42.148438 L 39.242188 42.148438 L 39.242188 42.171875 C 39.5625 42.222656 39.84375 42.386719 40.050781 42.617188 " fill-opacity="1" fill-rule="nonzero"/><path fill="rgb(34.118652%, 61.569214%, 56.858826%)" d="M 42.5625 37.996094 L 42.5625 36.035156 L 42.097656 36.035156 L 42.097656 38.808594 L 42.117188 38.808594 C 42.171875 38.488281 42.332031 38.203125 42.5625 37.996094 " fill-opacity="1" fill-rule="nonzero"/><path fill="rgb(34.118652%, 61.569214%, 56.858826%)" d="M 42.5625 41.601562 L 42.5625 40.09375 C 42.332031 39.882812 42.171875 39.601562 42.117188 39.28125 L 42.097656 39.28125 L 42.097656 41.601562 L 42.5625 41.601562 " fill-opacity="1" fill-rule="nonzero"/><path fill="rgb(87.449646%, 69.40918%, 40.779114%)" d="M 39.242188 42.148438 L 39.242188 41.535156 L 38.773438 41.535156 L 38.773438 42.148438 L 39.242188 42.148438 " fill-opacity="1" fill-rule="nonzero"/><path fill="rgb(87.449646%, 69.40918%, 40.779114%)" d="M 43.265625 40.433594 L 43.265625 43.324219 L 40.390625 43.324219 C 40.402344 43.402344 40.410156 43.480469 40.410156 43.558594 C 40.410156 43.640625 40.402344 43.71875 40.390625 43.792969 L 43.734375 43.792969 L 43.734375 40.433594 C 43.65625 40.445312 43.582031 40.457031 43.5 40.457031 C 43.417969 40.457031 43.34375 40.445312 43.265625 40.433594 " fill-opacity="1" fill-rule="nonzero"/><path fill="rgb(87.449646%, 69.40918%, 40.779114%)" d="M 39.242188 42.648438 C 39.167969 42.628906 39.089844 42.617188 39.007812 42.617188 C 38.929688 42.617188 38.847656 42.628906 38.773438 42.648438 L 38.773438 43.792969 L 39.914062 43.792969 C 39.933594 43.71875 39.945312 43.640625 39.945312 43.558594 C 39.945312 43.476562 39.933594 43.398438 39.914062 43.324219 L 39.242188 43.324219 L 39.242188 42.648438 " fill-opacity="1" fill-rule="nonzero"/><path fill="rgb(87.449646%, 69.40918%, 40.779114%)" d="M 39.242188 39.28125 L 41.019531 39.28125 L 41.019531 38.808594 L 38.773438 38.808594 L 38.773438 41.066406 L 39.242188 41.066406 L 39.242188 39.28125 " fill-opacity="1" fill-rule="nonzero"/><path fill="rgb(87.449646%, 69.40918%, 40.779114%)" d="M 42.59375 39.28125 L 43.265625 39.28125 L 43.265625 39.953125 C 43.339844 39.972656 43.417969 39.984375 43.5 39.984375 C 43.582031 39.984375 43.660156 39.972656 43.734375 39.953125 L 43.734375 38.808594 L 42.59375 38.808594 C 42.574219 38.882812 42.5625 38.964844 42.5625 39.042969 C 42.5625 39.125 42.574219 39.203125 42.59375 39.28125 " fill-opacity="1" fill-rule="nonzero"/><path fill="rgb(87.449646%, 69.40918%, 40.779114%)" d="M 42.097656 39.28125 L 42.097656 38.808594 L 41.488281 38.808594 L 41.488281 39.28125 L 42.097656 39.28125 " fill-opacity="1" fill-rule="nonzero"/><path fill="rgb(87.449646%, 69.40918%, 40.779114%)" d="M 38.773438 41.535156 L 39.242188 41.535156 L 39.242188 41.066406 L 38.773438 41.066406 Z M 38.773438 41.535156 " fill-opacity="1" fill-rule="nonzero"/><path fill="rgb(87.449646%, 69.40918%, 40.779114%)" d="M 41.019531 39.28125 L 41.488281 39.28125 L 41.488281 38.808594 L 41.019531 38.808594 Z M 41.019531 39.28125 " fill-opacity="1" fill-rule="nonzero"/><path fill="rgb(87.449646%, 69.40918%, 40.779114%)" d="M 39.242188 42.148438 L 39.007812 42.148438 C 39.089844 42.148438 39.167969 42.15625 39.242188 42.171875 L 39.242188 42.148438 " fill-opacity="1" fill-rule="nonzero"/><path fill="rgb(87.449646%, 69.40918%, 40.779114%)" d="M 39.007812 42.148438 L 38.773438 42.148438 L 38.773438 42.171875 C 38.851562 42.15625 38.929688 42.148438 39.007812 42.148438 " fill-opacity="1" fill-rule="nonzero"/><path fill="rgb(87.449646%, 69.40918%, 40.779114%)" d="M 42.117188 38.808594 L 42.097656 38.808594 L 42.097656 39.042969 C 42.097656 38.964844 42.105469 38.886719 42.117188 38.808594 " fill-opacity="1" fill-rule="nonzero"/><path fill="rgb(87.449646%, 69.40918%, 40.779114%)" d="M 42.097656 39.042969 L 42.097656 39.28125 L 42.117188 39.28125 C 42.105469 39.203125 42.097656 39.125 42.097656 39.042969 " fill-opacity="1" fill-rule="nonzero"/><g clip-path="url(#id5)"><path fill="rgb(87.449646%, 69.40918%, 40.779114%)" d="M 43.5 37.632812 C 43.140625 37.632812 42.8125 37.769531 42.5625 37.996094 L 42.5625 38.808594 L 42.59375 38.808594 C 42.699219 38.40625 43.066406 38.105469 43.5 38.105469 C 44.015625 38.105469 44.4375 38.527344 44.4375 39.042969 C 44.4375 39.480469 44.136719 39.847656 43.734375 39.953125 L 43.734375 40.433594 C 44.394531 40.320312 44.902344 39.742188 44.902344 39.042969 C 44.902344 38.265625 44.273438 37.632812 43.5 37.632812 " fill-opacity="1" fill-rule="nonzero"/></g><path fill="rgb(87.449646%, 69.40918%, 40.779114%)" d="M 42.59375 39.28125 L 42.5625 39.28125 L 42.5625 40.09375 C 42.757812 40.265625 43 40.386719 43.265625 40.433594 L 43.265625 39.953125 C 42.9375 39.871094 42.679688 39.609375 42.59375 39.28125 " fill-opacity="1" fill-rule="nonzero"/><path fill="rgb(87.449646%, 69.40918%, 40.779114%)" d="M 42.117188 38.808594 L 42.5625 38.808594 L 42.5625 37.996094 C 42.332031 38.203125 42.171875 38.488281 42.117188 38.808594 " fill-opacity="1" fill-rule="nonzero"/><path fill="rgb(87.449646%, 69.40918%, 40.779114%)" d="M 42.5625 40.09375 L 42.5625 39.28125 L 42.117188 39.28125 C 42.171875 39.601562 42.332031 39.882812 42.5625 40.09375 " fill-opacity="1" fill-rule="nonzero"/><path fill="rgb(87.449646%, 69.40918%, 40.779114%)" d="M 43.5 39.984375 C 43.417969 39.984375 43.339844 39.972656 43.265625 39.953125 L 43.265625 40.433594 C 43.34375 40.445312 43.417969 40.457031 43.5 40.457031 C 43.582031 40.457031 43.65625 40.445312 43.734375 40.433594 L 43.734375 39.953125 C 43.660156 39.972656 43.582031 39.984375 43.5 39.984375 " fill-opacity="1" fill-rule="nonzero"/><path fill="rgb(87.449646%, 69.40918%, 40.779114%)" d="M 42.59375 38.808594 L 42.5625 38.808594 L 42.5625 39.042969 C 42.5625 38.964844 42.574219 38.882812 42.59375 38.808594 " fill-opacity="1" fill-rule="nonzero"/><path fill="rgb(87.449646%, 69.40918%, 40.779114%)" d="M 42.5625 39.042969 L 42.5625 39.28125 L 42.59375 39.28125 C 42.574219 39.203125 42.5625 39.125 42.5625 39.042969 " fill-opacity="1" fill-rule="nonzero"/><path fill="rgb(87.449646%, 69.40918%, 40.779114%)" d="M 42.097656 39.042969 C 42.097656 39.125 42.105469 39.203125 42.117188 39.28125 L 42.5625 39.28125 L 42.5625 38.808594 L 42.117188 38.808594 C 42.105469 38.886719 42.097656 38.964844 42.097656 39.042969 " fill-opacity="1" fill-rule="nonzero"/><path fill="rgb(87.449646%, 69.40918%, 40.779114%)" d="M 39.242188 42.617188 L 39.242188 42.648438 C 39.570312 42.734375 39.828125 42.996094 39.914062 43.324219 L 40.390625 43.324219 C 40.34375 43.054688 40.226562 42.8125 40.050781 42.617188 L 39.242188 42.617188 " fill-opacity="1" fill-rule="nonzero"/><g clip-path="url(#id6)"><path fill="rgb(87.449646%, 69.40918%, 40.779114%)" d="M 39.007812 44.5 C 38.492188 44.5 38.074219 44.078125 38.074219 43.558594 C 38.074219 43.121094 38.371094 42.753906 38.773438 42.648438 L 38.773438 42.617188 L 37.964844 42.617188 C 37.742188 42.867188 37.605469 43.199219 37.605469 43.558594 C 37.605469 44.335938 38.234375 44.96875 39.007812 44.96875 C 39.703125 44.96875 40.277344 44.460938 40.390625 43.792969 L 39.914062 43.792969 C 39.808594 44.199219 39.445312 44.5 39.007812 44.5 " fill-opacity="1" fill-rule="nonzero"/></g><path fill="rgb(87.449646%, 69.40918%, 40.779114%)" d="M 38.773438 42.171875 C 38.457031 42.222656 38.171875 42.386719 37.964844 42.617188 L 38.773438 42.617188 L 38.773438 42.171875 " fill-opacity="1" fill-rule="nonzero"/><path fill="rgb(87.449646%, 69.40918%, 40.779114%)" d="M 39.242188 42.171875 L 39.242188 42.617188 L 40.050781 42.617188 C 39.84375 42.386719 39.5625 42.222656 39.242188 42.171875 " fill-opacity="1" fill-rule="nonzero"/><path fill="rgb(87.449646%, 69.40918%, 40.779114%)" d="M 40.390625 43.324219 L 39.914062 43.324219 C 39.933594 43.398438 39.945312 43.476562 39.945312 43.558594 C 39.945312 43.640625 39.933594 43.71875 39.914062 43.792969 L 40.390625 43.792969 C 40.402344 43.71875 40.410156 43.640625 40.410156 43.558594 C 40.410156 43.480469 40.402344 43.402344 40.390625 43.324219 " fill-opacity="1" fill-rule="nonzero"/><path fill="rgb(87.449646%, 69.40918%, 40.779114%)" d="M 39.242188 42.648438 L 39.242188 42.617188 L 39.007812 42.617188 C 39.089844 42.617188 39.167969 42.628906 39.242188 42.648438 " fill-opacity="1" fill-rule="nonzero"/><path fill="rgb(87.449646%, 69.40918%, 40.779114%)" d="M 38.773438 42.617188 L 38.773438 42.648438 C 38.847656 42.628906 38.929688 42.617188 39.007812 42.617188 L 38.773438 42.617188 " fill-opacity="1" fill-rule="nonzero"/><path fill="rgb(87.449646%, 69.40918%, 40.779114%)" d="M 39.242188 42.617188 L 39.242188 42.171875 C 39.167969 42.15625 39.089844 42.148438 39.007812 42.148438 C 38.929688 42.148438 38.851562 42.15625 38.773438 42.171875 L 38.773438 42.617188 L 39.242188 42.617188 " fill-opacity="1" fill-rule="nonzero"/><path fill="rgb(34.118652%, 61.569214%, 56.858826%)" d="M 4.335938 39.28125 L 3.871094 39.28125 L 3.871094 41.535156 L 6.117188 41.535156 L 6.117188 41.066406 L 4.335938 41.066406 L 4.335938 39.28125 " fill-opacity="1" fill-rule="nonzero"/><path fill="rgb(34.118652%, 61.569214%, 56.858826%)" d="M 6.582031 41.535156 L 11.496094 41.535156 L 11.496094 41.066406 L 6.582031 41.066406 Z M 6.582031 41.535156 " fill-opacity="1" fill-rule="nonzero"/><path fill="rgb(34.118652%, 61.569214%, 56.858826%)" d="M 3.871094 38.808594 L 4.335938 38.808594 L 4.335938 33.871094 L 3.871094 33.871094 Z M 3.871094 38.808594 " fill-opacity="1" fill-rule="nonzero"/><path fill="rgb(34.118652%, 61.569214%, 56.858826%)" d="M 7.394531 42.617188 L 9.300781 42.617188 L 9.300781 42.148438 L 6.582031 42.148438 L 6.582031 42.171875 C 6.902344 42.222656 7.183594 42.386719 7.394531 42.617188 " fill-opacity="1" fill-rule="nonzero"/><path fill="rgb(34.118652%, 61.569214%, 56.858826%)" d="M 3.847656 42.617188 L 5.304688 42.617188 C 5.515625 42.386719 5.796875 42.222656 6.117188 42.171875 L 6.117188 42.148438 L 3.847656 42.148438 L 3.847656 42.617188 " fill-opacity="1" fill-rule="nonzero"/><path fill="rgb(34.118652%, 61.569214%, 56.858826%)" d="M 3.242188 38.808594 L 3.261719 38.808594 L 3.261719 36.035156 L 2.792969 36.035156 L 2.792969 37.996094 C 3.023438 38.203125 3.1875 38.488281 3.242188 38.808594 " fill-opacity="1" fill-rule="nonzero"/><path fill="rgb(34.118652%, 61.569214%, 56.858826%)" d="M 2.792969 40.09375 L 2.792969 41.601562 L 3.261719 41.601562 L 3.261719 39.28125 L 3.242188 39.28125 C 3.1875 39.601562 3.023438 39.882812 2.792969 40.09375 " fill-opacity="1" fill-rule="nonzero"/><path fill="rgb(87.449646%, 69.40918%, 40.779114%)" d="M 2.761719 39.28125 C 2.78125 39.203125 2.792969 39.125 2.792969 39.042969 C 2.792969 38.964844 2.78125 38.882812 2.761719 38.808594 L 1.625 38.808594 L 1.625 39.953125 C 1.699219 39.972656 1.777344 39.984375 1.859375 39.984375 C 1.9375 39.984375 2.015625 39.972656 2.09375 39.953125 L 2.09375 39.28125 L 2.761719 39.28125 " fill-opacity="1" fill-rule="nonzero"/><path fill="rgb(87.449646%, 69.40918%, 40.779114%)" d="M 4.96875 43.324219 L 2.09375 43.324219 L 2.09375 40.433594 C 2.015625 40.445312 1.9375 40.457031 1.859375 40.457031 C 1.777344 40.457031 1.699219 40.445312 1.625 40.433594 L 1.625 43.792969 L 4.96875 43.792969 C 4.953125 43.71875 4.945312 43.640625 4.945312 43.558594 C 4.945312 43.480469 4.953125 43.402344 4.96875 43.324219 " fill-opacity="1" fill-rule="nonzero"/><path fill="rgb(87.449646%, 69.40918%, 40.779114%)" d="M 3.261719 39.28125 L 3.871094 39.28125 L 3.871094 38.808594 L 3.261719 38.808594 L 3.261719 39.28125 " fill-opacity="1" fill-rule="nonzero"/><path fill="rgb(87.449646%, 69.40918%, 40.779114%)" d="M 6.117188 39.28125 L 6.117188 41.066406 L 6.582031 41.066406 L 6.582031 38.808594 L 4.335938 38.808594 L 4.335938 39.28125 L 6.117188 39.28125 " fill-opacity="1" fill-rule="nonzero"/><path fill="rgb(87.449646%, 69.40918%, 40.779114%)" d="M 6.117188 42.148438 L 6.582031 42.148438 L 6.582031 41.535156 L 6.117188 41.535156 L 6.117188 42.148438 " fill-opacity="1" fill-rule="nonzero"/><path fill="rgb(87.449646%, 69.40918%, 40.779114%)" d="M 6.117188 42.648438 L 6.117188 43.324219 L 5.445312 43.324219 C 5.425781 43.398438 5.414062 43.476562 5.414062 43.558594 C 5.414062 43.640625 5.425781 43.71875 5.445312 43.792969 L 6.582031 43.792969 L 6.582031 42.648438 C 6.507812 42.628906 6.429688 42.617188 6.351562 42.617188 C 6.269531 42.617188 6.191406 42.628906 6.117188 42.648438 " fill-opacity="1" fill-rule="nonzero"/><path fill="rgb(87.449646%, 69.40918%, 40.779114%)" d="M 6.117188 41.535156 L 6.582031 41.535156 L 6.582031 41.066406 L 6.117188 41.066406 Z M 6.117188 41.535156 " fill-opacity="1" fill-rule="nonzero"/><path fill="rgb(87.449646%, 69.40918%, 40.779114%)" d="M 3.871094 39.28125 L 4.335938 39.28125 L 4.335938 38.808594 L 3.871094 38.808594 Z M 3.871094 39.28125 " fill-opacity="1" fill-rule="nonzero"/><path fill="rgb(87.449646%, 69.40918%, 40.779114%)" d="M 2.792969 39.28125 L 2.761719 39.28125 C 2.679688 39.609375 2.417969 39.871094 2.09375 39.953125 L 2.09375 40.433594 C 2.359375 40.386719 2.601562 40.265625 2.792969 40.09375 L 2.792969 39.28125 " fill-opacity="1" fill-rule="nonzero"/><g clip-path="url(#id7)"><path fill="rgb(87.449646%, 69.40918%, 40.779114%)" d="M 0.921875 39.042969 C 0.921875 38.527344 1.34375 38.105469 1.859375 38.105469 C 2.292969 38.105469 2.660156 38.40625 2.761719 38.808594 L 2.792969 38.808594 L 2.792969 37.996094 C 2.546875 37.769531 2.21875 37.632812 1.859375 37.632812 C 1.085938 37.632812 0.453125 38.265625 0.453125 39.042969 C 0.453125 39.742188 0.960938 40.320312 1.625 40.433594 L 1.625 39.953125 C 1.222656 39.847656 0.921875 39.480469 0.921875 39.042969 " fill-opacity="1" fill-rule="nonzero"/></g><path fill="rgb(87.449646%, 69.40918%, 40.779114%)" d="M 2.09375 40.433594 L 2.09375 39.953125 C 2.015625 39.972656 1.9375 39.984375 1.859375 39.984375 C 1.777344 39.984375 1.699219 39.972656 1.625 39.953125 L 1.625 40.433594 C 1.699219 40.445312 1.777344 40.457031 1.859375 40.457031 C 1.9375 40.457031 2.015625 40.445312 2.09375 40.433594 " fill-opacity="1" fill-rule="nonzero"/><path fill="rgb(87.449646%, 69.40918%, 40.779114%)" d="M 2.792969 39.28125 L 3.242188 39.28125 C 3.253906 39.203125 3.261719 39.125 3.261719 39.042969 C 3.261719 38.964844 3.253906 38.886719 3.242188 38.808594 L 2.792969 38.808594 L 2.792969 39.28125 " fill-opacity="1" fill-rule="nonzero"/><path fill="rgb(87.449646%, 69.40918%, 40.779114%)" d="M 6.117188 42.648438 L 6.117188 42.617188 L 5.304688 42.617188 C 5.132812 42.8125 5.011719 43.054688 4.96875 43.324219 L 5.445312 43.324219 C 5.53125 42.996094 5.789062 42.734375 6.117188 42.648438 " fill-opacity="1" fill-rule="nonzero"/><g clip-path="url(#id8)"><path fill="rgb(87.449646%, 69.40918%, 40.779114%)" d="M 6.582031 42.648438 C 6.988281 42.753906 7.285156 43.121094 7.285156 43.558594 C 7.285156 44.078125 6.867188 44.5 6.351562 44.5 C 5.914062 44.5 5.546875 44.199219 5.445312 43.792969 L 4.96875 43.792969 C 5.078125 44.460938 5.65625 44.96875 6.351562 44.96875 C 7.125 44.96875 7.753906 44.335938 7.753906 43.558594 C 7.753906 43.199219 7.617188 42.867188 7.394531 42.617188 L 6.582031 42.617188 L 6.582031 42.648438 " fill-opacity="1" fill-rule="nonzero"/></g><path fill="rgb(87.449646%, 69.40918%, 40.779114%)" d="M 6.117188 42.171875 C 5.796875 42.222656 5.515625 42.386719 5.304688 42.617188 L 6.117188 42.617188 L 6.117188 42.171875 " fill-opacity="1" fill-rule="nonzero"/><path fill="rgb(87.449646%, 69.40918%, 40.779114%)" d="M 6.582031 42.171875 L 6.582031 42.617188 L 7.394531 42.617188 C 7.183594 42.386719 6.902344 42.222656 6.582031 42.171875 " fill-opacity="1" fill-rule="nonzero"/><path fill="rgb(87.449646%, 69.40918%, 40.779114%)" d="M 6.117188 42.617188 L 6.582031 42.617188 L 6.582031 42.171875 C 6.507812 42.15625 6.429688 42.148438 6.351562 42.148438 C 6.269531 42.148438 6.191406 42.15625 6.117188 42.171875 L 6.117188 42.617188 " fill-opacity="1" fill-rule="nonzero"/><path fill="rgb(87.449646%, 69.40918%, 40.779114%)" d="M 6.351562 42.148438 L 6.117188 42.148438 L 6.117188 42.171875 C 6.191406 42.15625 6.269531 42.148438 6.351562 42.148438 " fill-opacity="1" fill-rule="nonzero"/><path fill="rgb(87.449646%, 69.40918%, 40.779114%)" d="M 6.582031 42.171875 L 6.582031 42.148438 L 6.351562 42.148438 C 6.429688 42.148438 6.507812 42.15625 6.582031 42.171875 " fill-opacity="1" fill-rule="nonzero"/><path fill="rgb(87.449646%, 69.40918%, 40.779114%)" d="M 3.261719 39.28125 L 3.261719 39.042969 C 3.261719 39.125 3.253906 39.203125 3.242188 39.28125 L 3.261719 39.28125 " fill-opacity="1" fill-rule="nonzero"/><path fill="rgb(87.449646%, 69.40918%, 40.779114%)" d="M 3.261719 39.042969 L 3.261719 38.808594 L 3.242188 38.808594 C 3.253906 38.886719 3.261719 38.964844 3.261719 39.042969 " fill-opacity="1" fill-rule="nonzero"/><path fill="rgb(87.449646%, 69.40918%, 40.779114%)" d="M 3.242188 39.28125 L 2.792969 39.28125 L 2.792969 40.09375 C 3.023438 39.882812 3.1875 39.601562 3.242188 39.28125 " fill-opacity="1" fill-rule="nonzero"/><path fill="rgb(87.449646%, 69.40918%, 40.779114%)" d="M 3.242188 38.808594 C 3.1875 38.488281 3.023438 38.203125 2.792969 37.996094 L 2.792969 38.808594 L 3.242188 38.808594 " fill-opacity="1" fill-rule="nonzero"/><path fill="rgb(87.449646%, 69.40918%, 40.779114%)" d="M 2.761719 39.28125 L 2.792969 39.28125 L 2.792969 39.042969 C 2.792969 39.125 2.78125 39.203125 2.761719 39.28125 " fill-opacity="1" fill-rule="nonzero"/><path fill="rgb(87.449646%, 69.40918%, 40.779114%)" d="M 2.792969 38.808594 L 2.761719 38.808594 C 2.78125 38.882812 2.792969 38.964844 2.792969 39.042969 L 2.792969 38.808594 " fill-opacity="1" fill-rule="nonzero"/><path fill="rgb(87.449646%, 69.40918%, 40.779114%)" d="M 6.351562 42.617188 L 6.117188 42.617188 L 6.117188 42.648438 C 6.191406 42.628906 6.269531 42.617188 6.351562 42.617188 " fill-opacity="1" fill-rule="nonzero"/><path fill="rgb(87.449646%, 69.40918%, 40.779114%)" d="M 6.582031 42.648438 L 6.582031 42.617188 L 6.351562 42.617188 C 6.429688 42.617188 6.507812 42.628906 6.582031 42.648438 " fill-opacity="1" fill-rule="nonzero"/><path fill="rgb(87.449646%, 69.40918%, 40.779114%)" d="M 5.414062 43.558594 C 5.414062 43.476562 5.425781 43.398438 5.445312 43.324219 L 4.96875 43.324219 C 4.953125 43.402344 4.945312 43.480469 4.945312 43.558594 C 4.945312 43.640625 4.953125 43.71875 4.96875 43.792969 L 5.445312 43.792969 C 5.425781 43.71875 5.414062 43.640625 5.414062 43.558594 " fill-opacity="1" fill-rule="nonzero"/><path fill="rgb(34.118652%, 61.569214%, 56.858826%)" d="M 3.871094 11.109375 L 4.335938 11.109375 L 4.335938 6.167969 L 3.871094 6.167969 Z M 3.871094 11.109375 " fill-opacity="1" fill-rule="nonzero"/><path fill="rgb(34.118652%, 61.569214%, 56.858826%)" d="M 6.582031 3.910156 L 11.496094 3.910156 L 11.496094 3.441406 L 6.582031 3.441406 Z M 6.582031 3.910156 " fill-opacity="1" fill-rule="nonzero"/><path fill="rgb(34.118652%, 61.569214%, 56.858826%)" d="M 3.871094 5.699219 L 4.335938 5.699219 L 4.335938 3.910156 L 6.117188 3.910156 L 6.117188 3.441406 L 3.871094 3.441406 L 3.871094 5.699219 " fill-opacity="1" fill-rule="nonzero"/><path fill="rgb(34.118652%, 61.569214%, 56.858826%)" d="M 2.792969 3.464844 L 2.792969 4.886719 C 3.023438 5.09375 3.1875 5.378906 3.242188 5.699219 L 3.261719 5.699219 L 3.261719 3.464844 L 2.792969 3.464844 " fill-opacity="1" fill-rule="nonzero"/><path fill="rgb(34.118652%, 61.569214%, 56.858826%)" d="M 2.792969 6.984375 L 2.792969 8.945312 L 3.261719 8.945312 L 3.261719 6.167969 L 3.242188 6.167969 C 3.1875 6.492188 3.023438 6.773438 2.792969 6.984375 " fill-opacity="1" fill-rule="nonzero"/><path fill="rgb(34.118652%, 61.569214%, 56.858826%)" d="M 6.582031 2.808594 L 6.582031 2.832031 L 9.300781 2.832031 L 9.300781 2.359375 L 7.394531 2.359375 C 7.183594 2.59375 6.902344 2.753906 6.582031 2.808594 " fill-opacity="1" fill-rule="nonzero"/><path fill="rgb(34.118652%, 61.569214%, 56.858826%)" d="M 5.304688 2.359375 L 3.847656 2.359375 L 3.847656 2.832031 L 6.117188 2.832031 L 6.117188 2.808594 C 5.796875 2.753906 5.515625 2.59375 5.304688 2.359375 " fill-opacity="1" fill-rule="nonzero"/><path fill="rgb(87.449646%, 69.40918%, 40.779114%)" d="M 2.761719 5.699219 L 2.09375 5.699219 L 2.09375 5.023438 C 2.015625 5.003906 1.9375 4.992188 1.859375 4.992188 C 1.777344 4.992188 1.699219 5.003906 1.625 5.023438 L 1.625 6.167969 L 2.761719 6.167969 C 2.78125 6.09375 2.792969 6.015625 2.792969 5.933594 C 2.792969 5.851562 2.78125 5.773438 2.761719 5.699219 " fill-opacity="1" fill-rule="nonzero"/><path fill="rgb(87.449646%, 69.40918%, 40.779114%)" d="M 3.261719 5.699219 L 3.261719 6.167969 L 3.871094 6.167969 L 3.871094 5.699219 L 3.261719 5.699219 " fill-opacity="1" fill-rule="nonzero"/><path fill="rgb(87.449646%, 69.40918%, 40.779114%)" d="M 6.117188 5.699219 L 4.335938 5.699219 L 4.335938 6.167969 L 6.582031 6.167969 L 6.582031 3.910156 L 6.117188 3.910156 L 6.117188 5.699219 " fill-opacity="1" fill-rule="nonzero"/><path fill="rgb(87.449646%, 69.40918%, 40.779114%)" d="M 6.117188 2.328125 C 6.191406 2.347656 6.269531 2.359375 6.351562 2.359375 C 6.429688 2.359375 6.507812 2.347656 6.582031 2.328125 L 6.582031 1.183594 L 5.445312 1.183594 C 5.425781 1.257812 5.414062 1.339844 5.414062 1.417969 C 5.414062 1.5 5.425781 1.578125 5.445312 1.65625 L 6.117188 1.65625 L 6.117188 2.328125 " fill-opacity="1" fill-rule="nonzero"/><path fill="rgb(87.449646%, 69.40918%, 40.779114%)" d="M 2.09375 4.542969 L 2.09375 1.65625 L 4.96875 1.65625 C 4.953125 1.578125 4.945312 1.5 4.945312 1.417969 C 4.945312 1.339844 4.953125 1.261719 4.96875 1.183594 L 1.625 1.183594 L 1.625 4.542969 C 1.699219 4.53125 1.777344 4.523438 1.859375 4.523438 C 1.9375 4.523438 2.015625 4.53125 2.09375 4.542969 " fill-opacity="1" fill-rule="nonzero"/><path fill="rgb(87.449646%, 69.40918%, 40.779114%)" d="M 6.117188 2.832031 L 6.117188 3.441406 L 6.582031 3.441406 L 6.582031 2.832031 L 6.117188 2.832031 " fill-opacity="1" fill-rule="nonzero"/><path fill="rgb(87.449646%, 69.40918%, 40.779114%)" d="M 3.871094 6.167969 L 4.335938 6.167969 L 4.335938 5.699219 L 3.871094 5.699219 Z M 3.871094 6.167969 " fill-opacity="1" fill-rule="nonzero"/><path fill="rgb(87.449646%, 69.40918%, 40.779114%)" d="M 6.117188 3.910156 L 6.582031 3.910156 L 6.582031 3.441406 L 6.117188 3.441406 Z M 6.117188 3.910156 " fill-opacity="1" fill-rule="nonzero"/><path fill="rgb(87.449646%, 69.40918%, 40.779114%)" d="M 3.261719 5.933594 L 3.261719 5.699219 L 3.242188 5.699219 C 3.253906 5.777344 3.261719 5.855469 3.261719 5.933594 " fill-opacity="1" fill-rule="nonzero"/><path fill="rgb(87.449646%, 69.40918%, 40.779114%)" d="M 3.242188 6.167969 L 3.261719 6.167969 L 3.261719 5.933594 C 3.261719 6.015625 3.253906 6.09375 3.242188 6.167969 " fill-opacity="1" fill-rule="nonzero"/><path fill="rgb(87.449646%, 69.40918%, 40.779114%)" d="M 6.351562 2.832031 L 6.582031 2.832031 L 6.582031 2.808594 C 6.507812 2.820312 6.429688 2.832031 6.351562 2.832031 " fill-opacity="1" fill-rule="nonzero"/><path fill="rgb(87.449646%, 69.40918%, 40.779114%)" d="M 6.117188 2.832031 L 6.351562 2.832031 C 6.269531 2.832031 6.191406 2.820312 6.117188 2.808594 L 6.117188 2.832031 " fill-opacity="1" fill-rule="nonzero"/><path fill="rgb(87.449646%, 69.40918%, 40.779114%)" d="M 6.117188 2.359375 L 6.117188 2.328125 C 5.789062 2.242188 5.53125 1.984375 5.445312 1.65625 L 4.96875 1.65625 C 5.011719 1.921875 5.132812 2.164062 5.304688 2.359375 L 6.117188 2.359375 " fill-opacity="1" fill-rule="nonzero"/><path fill="rgb(87.449646%, 69.40918%, 40.779114%)" d="M 6.351562 0.476562 C 6.867188 0.476562 7.285156 0.898438 7.285156 1.417969 C 7.285156 1.855469 6.988281 2.222656 6.582031 2.328125 L 6.582031 2.359375 L 7.394531 2.359375 C 7.617188 2.109375 7.753906 1.78125 7.753906 1.417969 C 7.753906 0.640625 7.125 0.0078125 6.351562 0.0078125 C 5.65625 0.0078125 5.078125 0.519531 4.96875 1.183594 L 5.445312 1.183594 C 5.546875 0.777344 5.914062 0.476562 6.351562 0.476562 " fill-opacity="1" fill-rule="nonzero"/><path fill="rgb(87.449646%, 69.40918%, 40.779114%)" d="M 6.117188 2.808594 L 6.117188 2.359375 L 5.304688 2.359375 C 5.515625 2.59375 5.796875 2.753906 6.117188 2.808594 " fill-opacity="1" fill-rule="nonzero"/><path fill="rgb(87.449646%, 69.40918%, 40.779114%)" d="M 6.582031 2.808594 C 6.902344 2.753906 7.183594 2.59375 7.394531 2.359375 L 6.582031 2.359375 L 6.582031 2.808594 " fill-opacity="1" fill-rule="nonzero"/><path fill="rgb(87.449646%, 69.40918%, 40.779114%)" d="M 6.582031 2.359375 L 6.582031 2.328125 C 6.507812 2.347656 6.429688 2.359375 6.351562 2.359375 L 6.582031 2.359375 " fill-opacity="1" fill-rule="nonzero"/><path fill="rgb(87.449646%, 69.40918%, 40.779114%)" d="M 6.117188 2.328125 L 6.117188 2.359375 L 6.351562 2.359375 C 6.269531 2.359375 6.191406 2.347656 6.117188 2.328125 " fill-opacity="1" fill-rule="nonzero"/><path fill="rgb(87.449646%, 69.40918%, 40.779114%)" d="M 4.96875 1.65625 L 5.445312 1.65625 C 5.425781 1.578125 5.414062 1.5 5.414062 1.417969 C 5.414062 1.339844 5.425781 1.257812 5.445312 1.183594 L 4.96875 1.183594 C 4.953125 1.261719 4.945312 1.339844 4.945312 1.417969 C 4.945312 1.5 4.953125 1.578125 4.96875 1.65625 " fill-opacity="1" fill-rule="nonzero"/><path fill="rgb(87.449646%, 69.40918%, 40.779114%)" d="M 6.117188 2.359375 L 6.117188 2.808594 C 6.191406 2.820312 6.269531 2.832031 6.351562 2.832031 C 6.429688 2.832031 6.507812 2.820312 6.582031 2.808594 L 6.582031 2.359375 L 6.117188 2.359375 " fill-opacity="1" fill-rule="nonzero"/><g clip-path="url(#id9)"><path fill="rgb(87.449646%, 69.40918%, 40.779114%)" d="M 1.859375 7.34375 C 2.21875 7.34375 2.546875 7.207031 2.792969 6.984375 L 2.792969 6.167969 L 2.761719 6.167969 C 2.660156 6.574219 2.292969 6.875 1.859375 6.875 C 1.34375 6.875 0.921875 6.453125 0.921875 5.933594 C 0.921875 5.496094 1.222656 5.128906 1.625 5.023438 L 1.625 4.542969 C 0.960938 4.65625 0.453125 5.238281 0.453125 5.933594 C 0.453125 6.710938 1.085938 7.34375 1.859375 7.34375 " fill-opacity="1" fill-rule="nonzero"/></g><path fill="rgb(87.449646%, 69.40918%, 40.779114%)" d="M 2.761719 5.699219 L 2.792969 5.699219 L 2.792969 4.886719 C 2.601562 4.710938 2.359375 4.589844 2.09375 4.542969 L 2.09375 5.023438 C 2.417969 5.109375 2.679688 5.371094 2.761719 5.699219 " fill-opacity="1" fill-rule="nonzero"/><path fill="rgb(87.449646%, 69.40918%, 40.779114%)" d="M 2.792969 4.886719 L 2.792969 5.699219 L 3.242188 5.699219 C 3.1875 5.378906 3.023438 5.09375 2.792969 4.886719 " fill-opacity="1" fill-rule="nonzero"/><path fill="rgb(87.449646%, 69.40918%, 40.779114%)" d="M 3.242188 6.167969 L 2.792969 6.167969 L 2.792969 6.984375 C 3.023438 6.773438 3.1875 6.492188 3.242188 6.167969 " fill-opacity="1" fill-rule="nonzero"/><path fill="rgb(87.449646%, 69.40918%, 40.779114%)" d="M 2.761719 6.167969 L 2.792969 6.167969 L 2.792969 5.933594 C 2.792969 6.015625 2.78125 6.09375 2.761719 6.167969 " fill-opacity="1" fill-rule="nonzero"/><path fill="rgb(87.449646%, 69.40918%, 40.779114%)" d="M 1.859375 4.992188 C 1.9375 4.992188 2.015625 5.003906 2.09375 5.023438 L 2.09375 4.542969 C 2.015625 4.53125 1.9375 4.523438 1.859375 4.523438 C 1.777344 4.523438 1.699219 4.53125 1.625 4.542969 L 1.625 5.023438 C 1.699219 5.003906 1.777344 4.992188 1.859375 4.992188 " fill-opacity="1" fill-rule="nonzero"/><path fill="rgb(87.449646%, 69.40918%, 40.779114%)" d="M 2.792969 5.933594 L 2.792969 5.699219 L 2.761719 5.699219 C 2.78125 5.773438 2.792969 5.851562 2.792969 5.933594 " fill-opacity="1" fill-rule="nonzero"/><path fill="rgb(87.449646%, 69.40918%, 40.779114%)" d="M 3.261719 5.933594 C 3.261719 5.855469 3.253906 5.777344 3.242188 5.699219 L 2.792969 5.699219 L 2.792969 6.167969 L 3.242188 6.167969 C 3.253906 6.09375 3.261719 6.015625 3.261719 5.933594 " fill-opacity="1" fill-rule="nonzero"/><g fill="rgb(0%, 0%, 0%)" fill-opacity="1"><g transform="translate(6.79841, 26.75012)"><g><path d="M 0.890625 0 L 2.539062 0 L 2.539062 -4.34375 C 2.992188 -4.820312 3.398438 -5.058594 3.757812 -5.058594 C 4.355469 -5.058594 4.640625 -4.707031 4.640625 -3.734375 L 4.640625 0 L 6.296875 0 L 6.296875 -4.34375 C 6.75 -4.820312 7.15625 -5.058594 7.515625 -5.058594 C 8.117188 -5.058594 8.398438 -4.707031 8.398438 -3.734375 L 8.398438 0 L 10.058594 0 L 10.058594 -3.9375 C 10.058594 -5.53125 9.4375 -6.480469 8.09375 -6.480469 C 7.269531 -6.480469 6.660156 -5.980469 6.082031 -5.371094 C 5.777344 -6.074219 5.25 -6.480469 4.34375 -6.480469 C 3.523438 -6.480469 2.933594 -6.027344 2.402344 -5.472656 L 2.359375 -5.472656 L 2.246094 -6.320312 L 0.890625 -6.320312 Z M 0.890625 0 "/></g></g></g><g fill="rgb(0%, 0%, 0%)" fill-opacity="1"><g transform="translate(17.677266, 26.75012)"><g><path d="M 3.632812 0.15625 C 4.425781 0.15625 5.226562 -0.113281 5.847656 -0.542969 L 5.28125 -1.558594 C 4.832031 -1.277344 4.378906 -1.117188 3.859375 -1.117188 C 2.921875 -1.117188 2.246094 -1.660156 2.109375 -2.699219 L 6.003906 -2.699219 C 6.050781 -2.84375 6.082031 -3.148438 6.082031 -3.453125 C 6.082031 -5.203125 5.179688 -6.480469 3.441406 -6.480469 C 1.929688 -6.480469 0.496094 -5.203125 0.496094 -3.148438 C 0.496094 -1.074219 1.875 0.15625 3.632812 0.15625 Z M 2.089844 -3.792969 C 2.210938 -4.71875 2.800781 -5.191406 3.464844 -5.191406 C 4.277344 -5.191406 4.660156 -4.652344 4.660156 -3.792969 Z M 2.089844 -3.792969 "/></g></g></g><g fill="rgb(0%, 0%, 0%)" fill-opacity="1"><g transform="translate(24.233929, 26.75012)"><g><path d="M 0.890625 0 L 2.539062 0 L 2.539062 -4.34375 C 3.015625 -4.808594 3.339844 -5.058594 3.859375 -5.058594 C 4.480469 -5.058594 4.753906 -4.707031 4.753906 -3.734375 L 4.753906 0 L 6.410156 0 L 6.410156 -3.9375 C 6.410156 -5.53125 5.824219 -6.480469 4.457031 -6.480469 C 3.601562 -6.480469 2.957031 -6.027344 2.402344 -5.484375 L 2.359375 -5.484375 L 2.246094 -6.320312 L 0.890625 -6.320312 Z M 0.890625 0 "/></g></g></g><g fill="rgb(0%, 0%, 0%)" fill-opacity="1"><g transform="translate(31.467694, 26.75012)"><g><path d="M 2.765625 0.15625 C 3.632812 0.15625 4.242188 -0.257812 4.785156 -0.902344 L 4.832031 -0.902344 L 4.957031 0 L 6.308594 0 L 6.308594 -6.320312 L 4.652344 -6.320312 L 4.652344 -2.054688 C 4.222656 -1.488281 3.882812 -1.265625 3.363281 -1.265625 C 2.753906 -1.265625 2.484375 -1.601562 2.484375 -2.585938 L 2.484375 -6.320312 L 0.824219 -6.320312 L 0.824219 -2.371094 C 0.824219 -0.789062 1.410156 0.15625 2.765625 0.15625 Z M 2.765625 0.15625 "/></g></g></g><g clip-path="url(#id10)"><path fill="rgb(27.449036%, 43.528748%, 30.979919%)" d="M 29.972656 9.320312 C 29.726562 9.375 29.480469 9.425781 29.269531 9.535156 C 29.25 9.542969 29.234375 9.550781 29.21875 9.5625 C 28.996094 9.6875 28.816406 9.867188 28.683594 10.082031 C 28.609375 10.199219 28.542969 10.316406 28.523438 10.472656 C 28.511719 10.539062 28.464844 10.804688 28.636719 10.796875 C 29.066406 10.777344 29.34375 10.507812 29.550781 10.210938 C 29.667969 10.046875 29.953125 9.433594 29.992188 9.335938 C 29.992188 9.328125 29.980469 9.316406 29.972656 9.320312 Z M 31.15625 11.851562 C 31.042969 11.617188 30.878906 11.425781 30.679688 11.277344 C 30.570312 11.195312 30.457031 11.125 30.3125 11.09375 C 30.246094 11.082031 29.992188 11.019531 29.992188 11.199219 C 29.988281 11.644531 30.238281 11.941406 30.515625 12.167969 C 30.667969 12.296875 31.246094 12.621094 31.339844 12.664062 C 31.347656 12.667969 31.359375 12.65625 31.355469 12.644531 C 31.3125 12.390625 31.277344 12.128906 31.183594 11.90625 C 31.175781 11.890625 31.167969 11.871094 31.15625 11.851562 Z M 32.226562 9.328125 C 31.972656 9.324219 31.71875 9.3125 31.492188 9.367188 C 31.472656 9.371094 31.453125 9.375 31.433594 9.382812 C 31.191406 9.453125 30.976562 9.582031 30.796875 9.757812 C 30.699219 9.855469 30.613281 9.957031 30.554688 10.101562 C 30.53125 10.164062 30.425781 10.410156 30.59375 10.445312 C 31.015625 10.53125 31.347656 10.332031 31.613281 10.09375 C 31.765625 9.960938 32.179688 9.433594 32.238281 9.347656 C 32.242188 9.34375 32.234375 9.328125 32.226562 9.328125 Z M 33.125 11.457031 C 33.109375 11.441406 33.097656 11.429688 33.082031 11.414062 C 32.902344 11.230469 32.683594 11.105469 32.449219 11.03125 C 32.320312 10.992188 32.191406 10.964844 32.042969 10.984375 C 31.976562 10.996094 31.71875 11.023438 31.773438 11.191406 C 31.914062 11.613281 32.246094 11.8125 32.574219 11.929688 C 32.765625 12 33.410156 12.109375 33.511719 12.117188 C 33.519531 12.117188 33.527344 12.101562 33.523438 12.09375 C 33.402344 11.867188 33.285156 11.636719 33.125 11.457031 Z M 34.222656 9.085938 C 33.972656 9.125 33.722656 9.15625 33.507812 9.25 C 33.488281 9.257812 33.46875 9.265625 33.453125 9.273438 C 33.222656 9.382812 33.035156 9.550781 32.882812 9.753906 C 32.800781 9.863281 32.730469 9.980469 32.699219 10.128906 C 32.683594 10.195312 32.621094 10.460938 32.789062 10.464844 C 33.21875 10.476562 33.515625 10.226562 33.742188 9.949219 C 33.867188 9.789062 34.195312 9.203125 34.238281 9.105469 C 34.242188 9.097656 34.230469 9.085938 34.222656 9.085938 Z M 35.925781 12.253906 C 35.777344 12.046875 35.628906 11.832031 35.449219 11.675781 C 35.433594 11.664062 35.417969 11.652344 35.402344 11.640625 C 35.199219 11.480469 34.96875 11.386719 34.726562 11.347656 C 34.59375 11.324219 34.460938 11.3125 34.316406 11.355469 C 34.253906 11.375 34 11.441406 34.078125 11.597656 C 34.269531 11.996094 34.621094 12.148438 34.964844 12.222656 C 35.160156 12.261719 35.816406 12.28125 35.917969 12.277344 C 35.925781 12.277344 35.933594 12.261719 35.925781 12.253906 Z M 16.285156 10.082031 C 16.152344 9.867188 15.972656 9.6875 15.75 9.5625 C 15.734375 9.550781 15.71875 9.542969 15.699219 9.535156 C 15.488281 9.425781 15.242188 9.375 14.996094 9.320312 C 14.988281 9.316406 14.976562 9.328125 14.976562 9.335938 C 15.015625 9.433594 15.300781 10.046875 15.417969 10.210938 C 15.625 10.507812 15.902344 10.777344 16.332031 10.796875 C 16.5 10.804688 16.457031 10.539062 16.445312 10.472656 C 16.425781 10.316406 16.359375 10.199219 16.285156 10.082031 Z M 14.65625 11.09375 C 14.511719 11.125 14.398438 11.195312 14.289062 11.277344 C 14.089844 11.425781 13.921875 11.617188 13.8125 11.851562 C 13.800781 11.871094 13.792969 11.890625 13.785156 11.90625 C 13.691406 12.128906 13.652344 12.390625 13.609375 12.644531 C 13.609375 12.65625 13.621094 12.667969 13.628906 12.664062 C 13.722656 12.621094 14.296875 12.296875 14.453125 12.167969 C 14.730469 11.941406 14.976562 11.644531 14.976562 11.199219 C 14.976562 11.019531 14.722656 11.082031 14.65625 11.09375 Z M 14.375 10.445312 C 14.542969 10.410156 14.4375 10.164062 14.414062 10.101562 C 14.355469 9.957031 14.269531 9.855469 14.167969 9.757812 C 13.992188 9.582031 13.777344 9.453125 13.53125 9.382812 C 13.515625 9.375 13.496094 9.371094 13.476562 9.367188 C 13.25 9.3125 12.996094 9.324219 12.742188 9.328125 C 12.734375 9.328125 12.726562 9.34375 12.730469 9.347656 C 12.789062 9.433594 13.203125 9.960938 13.355469 10.09375 C 13.621094 10.332031 13.953125 10.53125 14.375 10.445312 Z M 12.925781 10.984375 C 12.777344 10.964844 12.648438 10.992188 12.519531 11.03125 C 12.28125 11.105469 12.066406 11.230469 11.886719 11.414062 C 11.871094 11.429688 11.859375 11.441406 11.84375 11.457031 C 11.683594 11.636719 11.566406 11.867188 11.445312 12.09375 C 11.441406 12.101562 11.449219 12.117188 11.457031 12.117188 C 11.558594 12.109375 12.203125 12 12.394531 11.929688 C 12.722656 11.8125 13.054688 11.613281 13.195312 11.191406 C 13.25 11.023438 12.992188 10.996094 12.925781 10.984375 Z M 12.269531 10.128906 C 12.238281 9.980469 12.167969 9.863281 12.085938 9.753906 C 11.933594 9.550781 11.746094 9.382812 11.515625 9.273438 C 11.496094 9.265625 11.480469 9.257812 11.460938 9.25 C 11.246094 9.15625 10.992188 9.125 10.746094 9.085938 C 10.734375 9.085938 10.726562 9.097656 10.730469 9.105469 C 10.773438 9.203125 11.101562 9.789062 11.226562 9.949219 C 11.453125 10.226562 11.746094 10.476562 12.179688 10.464844 C 12.347656 10.460938 12.285156 10.195312 12.269531 10.128906 Z M 10.816406 11.578125 C 10.679688 12 10.347656 12.199219 10.019531 12.320312 C 9.832031 12.390625 9.183594 12.503906 9.082031 12.511719 C 9.074219 12.511719 9.066406 12.5 9.070312 12.492188 C 9.191406 12.261719 9.308594 12.027344 9.46875 11.851562 C 9.480469 11.835938 9.492188 11.820312 9.507812 11.808594 C 9.6875 11.621094 9.902344 11.496094 10.140625 11.421875 C 10.269531 11.378906 10.398438 11.351562 10.546875 11.371094 C 10.613281 11.378906 10.871094 11.410156 10.816406 11.578125 " fill-opacity="1" fill-rule="nonzero"/></g><g clip-path="url(#id11)"><path fill="rgb(44.309998%, 65.098572%, 45.489502%)" d="M 32.3125 11.558594 C 32.1875 11.476562 32.082031 11.367188 32.019531 11.230469 C 32.015625 11.226562 32.015625 11.21875 32.011719 11.214844 C 32.011719 11.210938 32.011719 11.210938 32.011719 11.207031 C 32.011719 11.207031 32.007812 11.207031 32.007812 11.203125 C 32.445312 11.101562 32.84375 11.453125 33.097656 11.789062 C 33.105469 11.796875 33.113281 11.808594 33.121094 11.820312 C 32.839844 11.789062 32.550781 11.71875 32.3125 11.558594 Z M 32.996094 11.542969 C 32.824219 11.367188 32.625 11.207031 32.390625 11.136719 C 32.246094 11.097656 32.09375 11.09375 31.949219 11.136719 C 31.933594 11.140625 31.925781 11.152344 31.925781 11.164062 L 31.921875 11.171875 C 31.921875 11.175781 31.921875 11.179688 31.921875 11.1875 C 31.941406 11.269531 31.992188 11.347656 32.039062 11.410156 C 32.179688 11.589844 32.382812 11.707031 32.585938 11.78125 C 32.785156 11.855469 32.992188 11.890625 33.203125 11.90625 C 33.230469 11.910156 33.25 11.871094 33.234375 11.847656 C 33.167969 11.738281 33.082031 11.636719 32.996094 11.542969 Z M 13.4375 9.597656 C 13.65625 9.65625 13.878906 9.75 14.046875 9.910156 C 14.140625 10.003906 14.207031 10.113281 14.246094 10.238281 C 14.242188 10.238281 14.242188 10.242188 14.238281 10.242188 C 14.238281 10.242188 14.234375 10.242188 14.234375 10.242188 C 14.183594 10.246094 14.121094 10.246094 14.078125 10.238281 C 13.871094 10.207031 13.679688 10.09375 13.523438 9.953125 C 13.390625 9.835938 13.277344 9.695312 13.171875 9.546875 C 13.261719 9.558594 13.347656 9.578125 13.4375 9.597656 Z M 13.757812 10.214844 C 13.898438 10.285156 14.058594 10.335938 14.21875 10.324219 C 14.246094 10.320312 14.277344 10.316406 14.304688 10.308594 C 14.3125 10.304688 14.316406 10.300781 14.324219 10.292969 C 14.332031 10.285156 14.335938 10.273438 14.332031 10.257812 C 14.265625 9.992188 14.074219 9.792969 13.839844 9.667969 C 13.652344 9.570312 13.445312 9.507812 13.234375 9.476562 C 13.1875 9.472656 13.140625 9.464844 13.09375 9.460938 C 13.066406 9.460938 13.042969 9.496094 13.0625 9.523438 C 13.242188 9.796875 13.46875 10.058594 13.757812 10.214844 Z M 30.386719 11.730469 C 30.332031 11.65625 30.285156 11.574219 30.253906 11.492188 C 30.242188 11.460938 30.230469 11.425781 30.222656 11.394531 C 30.222656 11.378906 30.21875 11.367188 30.214844 11.351562 C 30.214844 11.347656 30.214844 11.34375 30.214844 11.335938 C 30.214844 11.335938 30.210938 11.328125 30.210938 11.324219 C 30.210938 11.3125 30.210938 11.300781 30.210938 11.289062 C 30.441406 11.316406 30.636719 11.464844 30.777344 11.65625 C 30.898438 11.824219 30.988281 12.011719 31.050781 12.207031 C 31.054688 12.222656 31.0625 12.234375 31.066406 12.25 C 30.808594 12.125 30.558594 11.960938 30.386719 11.730469 Z M 31.03125 11.941406 C 30.929688 11.71875 30.789062 11.5 30.589844 11.355469 C 30.464844 11.265625 30.324219 11.214844 30.171875 11.207031 C 30.148438 11.203125 30.136719 11.222656 30.136719 11.238281 C 30.136719 11.242188 30.132812 11.242188 30.132812 11.246094 C 30.125 11.324219 30.144531 11.414062 30.171875 11.492188 C 30.246094 11.707031 30.394531 11.886719 30.566406 12.027344 C 30.730469 12.164062 30.914062 12.269531 31.105469 12.355469 C 31.136719 12.371094 31.171875 12.347656 31.164062 12.3125 C 31.132812 12.183594 31.082031 12.0625 31.03125 11.941406 Z M 11.382812 9.472656 C 11.589844 9.5625 11.796875 9.691406 11.9375 9.878906 C 12.015625 9.984375 12.066406 10.109375 12.085938 10.238281 C 12.078125 10.238281 12.070312 10.238281 12.066406 10.238281 C 12.054688 10.238281 12.042969 10.238281 12.035156 10.238281 C 12.03125 10.238281 12.027344 10.234375 12.023438 10.234375 C 12.015625 10.234375 12.011719 10.234375 12.003906 10.230469 C 11.972656 10.226562 11.941406 10.21875 11.914062 10.210938 C 11.714844 10.144531 11.546875 9.996094 11.414062 9.832031 C 11.304688 9.695312 11.210938 9.539062 11.132812 9.378906 C 11.21875 9.402344 11.304688 9.433594 11.382812 9.472656 Z M 11.609375 10.132812 C 11.738281 10.230469 11.890625 10.304688 12.046875 10.316406 C 12.078125 10.320312 12.109375 10.320312 12.136719 10.316406 C 12.140625 10.316406 12.140625 10.3125 12.144531 10.3125 C 12.148438 10.3125 12.152344 10.308594 12.15625 10.304688 C 12.160156 10.304688 12.160156 10.300781 12.160156 10.296875 C 12.164062 10.292969 12.164062 10.292969 12.164062 10.289062 C 12.164062 10.289062 12.164062 10.285156 12.164062 10.285156 C 12.164062 10.28125 12.164062 10.28125 12.164062 10.277344 C 12.144531 10 11.984375 9.773438 11.777344 9.609375 C 11.605469 9.476562 11.40625 9.382812 11.203125 9.316406 C 11.160156 9.304688 11.117188 9.289062 11.074219 9.28125 C 11.039062 9.273438 11.015625 9.308594 11.03125 9.339844 C 11.167969 9.640625 11.347656 9.933594 11.609375 10.132812 Z M 22 10.710938 C 21.917969 10.75 21.839844 10.785156 21.757812 10.824219 C 21.089844 11.113281 20.378906 11.257812 19.660156 11.316406 C 18.933594 11.371094 18.203125 11.335938 17.480469 11.253906 C 16.675781 11.167969 15.882812 11.03125 15.082031 10.921875 C 14.308594 10.816406 13.523438 10.726562 12.742188 10.753906 C 12.140625 10.773438 11.480469 10.890625 11.058594 11.375 C 11 11.441406 10.90625 11.34375 10.964844 11.28125 C 11.015625 11.222656 11.070312 11.167969 11.125 11.117188 C 11.609375 10.703125 12.277344 10.617188 12.882812 10.613281 C 13.679688 10.605469 14.476562 10.699219 15.269531 10.808594 C 16.0625 10.921875 16.855469 11.058594 17.652344 11.136719 C 18.378906 11.207031 19.113281 11.234375 19.84375 11.160156 C 20.5625 11.089844 21.277344 10.914062 21.933594 10.589844 C 22.011719 10.554688 22.078125 10.671875 22 10.710938 Z M 12.957031 11.210938 C 12.957031 11.210938 12.957031 11.214844 12.957031 11.214844 C 12.933594 11.265625 12.902344 11.320312 12.875 11.355469 C 12.746094 11.527344 12.554688 11.636719 12.359375 11.707031 C 12.195312 11.765625 12.019531 11.800781 11.84375 11.820312 C 11.898438 11.746094 11.957031 11.675781 12.019531 11.609375 C 12.175781 11.441406 12.367188 11.289062 12.585938 11.21875 C 12.707031 11.179688 12.835938 11.175781 12.960938 11.203125 C 12.960938 11.207031 12.957031 11.207031 12.957031 11.210938 Z M 13.019531 11.136719 C 12.539062 10.996094 12.09375 11.363281 11.816406 11.730469 C 11.789062 11.769531 11.757812 11.808594 11.734375 11.847656 C 11.71875 11.871094 11.738281 11.910156 11.765625 11.90625 C 12.085938 11.878906 12.421875 11.8125 12.695312 11.628906 C 12.824219 11.539062 12.949219 11.417969 13.015625 11.269531 C 13.027344 11.246094 13.039062 11.214844 13.046875 11.1875 C 13.046875 11.179688 13.046875 11.175781 13.046875 11.171875 C 13.046875 11.167969 13.046875 11.167969 13.042969 11.167969 C 13.042969 11.152344 13.035156 11.140625 13.019531 11.136719 Z M 10.578125 11.59375 C 10.578125 11.597656 10.578125 11.601562 10.578125 11.601562 C 10.554688 11.652344 10.523438 11.703125 10.496094 11.742188 C 10.371094 11.914062 10.179688 12.023438 9.984375 12.097656 C 9.820312 12.15625 9.644531 12.191406 9.472656 12.214844 C 9.523438 12.136719 9.582031 12.066406 9.644531 12 C 9.800781 11.828125 9.988281 11.675781 10.207031 11.605469 C 10.332031 11.570312 10.457031 11.5625 10.582031 11.589844 C 10.582031 11.589844 10.578125 11.59375 10.578125 11.59375 Z M 10.640625 11.523438 C 10.15625 11.382812 9.71875 11.753906 9.441406 12.125 C 9.414062 12.164062 9.382812 12.203125 9.359375 12.242188 C 9.34375 12.265625 9.363281 12.304688 9.390625 12.300781 C 9.710938 12.273438 10.046875 12.199219 10.316406 12.015625 C 10.449219 11.925781 10.570312 11.804688 10.636719 11.65625 C 10.648438 11.628906 10.660156 11.601562 10.667969 11.570312 C 10.667969 11.566406 10.667969 11.5625 10.667969 11.558594 L 10.667969 11.554688 C 10.667969 11.554688 10.667969 11.554688 10.664062 11.550781 C 10.664062 11.539062 10.65625 11.527344 10.640625 11.523438 Z M 29.046875 9.960938 C 29.195312 9.832031 29.378906 9.730469 29.5625 9.65625 C 29.574219 9.648438 29.589844 9.644531 29.605469 9.636719 C 29.496094 9.910156 29.347656 10.175781 29.128906 10.367188 C 29.015625 10.46875 28.886719 10.539062 28.742188 10.5625 C 28.738281 10.5625 28.734375 10.566406 28.734375 10.566406 C 28.726562 10.566406 28.722656 10.566406 28.71875 10.566406 L 28.714844 10.566406 C 28.734375 10.324219 28.867188 10.117188 29.046875 9.960938 Z M 28.664062 10.644531 C 28.667969 10.644531 28.671875 10.644531 28.675781 10.648438 C 28.753906 10.652344 28.839844 10.625 28.914062 10.597656 C 29.121094 10.511719 29.285156 10.34375 29.414062 10.160156 C 29.539062 9.984375 29.632812 9.785156 29.707031 9.582031 C 29.71875 9.554688 29.6875 9.527344 29.660156 9.535156 C 29.539062 9.570312 29.421875 9.625 29.3125 9.6875 C 29.097656 9.800781 28.894531 9.957031 28.765625 10.167969 C 28.683594 10.300781 28.640625 10.453125 28.636719 10.605469 C 28.636719 10.628906 28.648438 10.640625 28.664062 10.644531 Z M 31.175781 9.730469 C 31.359375 9.636719 31.554688 9.585938 31.753906 9.554688 C 31.765625 9.554688 31.78125 9.550781 31.796875 9.550781 C 31.628906 9.785156 31.425781 10.011719 31.171875 10.144531 C 31.039062 10.214844 30.894531 10.257812 30.75 10.242188 C 30.742188 10.242188 30.738281 10.242188 30.730469 10.242188 C 30.730469 10.242188 30.730469 10.242188 30.726562 10.242188 C 30.726562 10.242188 30.726562 10.238281 30.722656 10.238281 C 30.792969 10.007812 30.96875 9.839844 31.175781 9.730469 Z M 30.664062 10.308594 C 30.742188 10.332031 30.832031 10.328125 30.910156 10.316406 C 31.132812 10.28125 31.332031 10.15625 31.496094 10.007812 C 31.65625 9.867188 31.789062 9.699219 31.90625 9.523438 C 31.925781 9.496094 31.902344 9.460938 31.875 9.460938 C 31.75 9.46875 31.621094 9.492188 31.5 9.527344 C 31.265625 9.585938 31.03125 9.6875 30.859375 9.863281 C 30.75 9.972656 30.675781 10.109375 30.636719 10.257812 C 30.632812 10.273438 30.636719 10.285156 30.644531 10.292969 C 30.648438 10.300781 30.65625 10.304688 30.664062 10.308594 Z M 33.253906 9.660156 C 33.417969 9.539062 33.605469 9.453125 33.792969 9.390625 C 33.808594 9.386719 33.820312 9.382812 33.832031 9.378906 C 33.707031 9.636719 33.546875 9.894531 33.320312 10.066406 C 33.246094 10.121094 33.167969 10.167969 33.082031 10.199219 C 33.050781 10.210938 33.019531 10.222656 32.988281 10.226562 C 32.972656 10.230469 32.960938 10.234375 32.945312 10.234375 C 32.941406 10.234375 32.9375 10.238281 32.9375 10.238281 C 32.929688 10.238281 32.925781 10.238281 32.917969 10.238281 C 32.90625 10.238281 32.898438 10.238281 32.886719 10.238281 C 32.917969 10 33.066406 9.800781 33.253906 9.660156 Z M 32.804688 10.289062 C 32.804688 10.292969 32.804688 10.292969 32.808594 10.296875 C 32.808594 10.300781 32.808594 10.304688 32.8125 10.304688 C 32.816406 10.308594 32.820312 10.3125 32.824219 10.3125 C 32.828125 10.3125 32.828125 10.316406 32.832031 10.316406 C 32.910156 10.328125 33 10.308594 33.074219 10.285156 C 33.289062 10.214844 33.464844 10.0625 33.605469 9.890625 C 33.742188 9.722656 33.847656 9.535156 33.9375 9.339844 C 33.953125 9.308594 33.929688 9.273438 33.894531 9.28125 C 33.773438 9.308594 33.652344 9.355469 33.539062 9.40625 C 33.316406 9.507812 33.101562 9.648438 32.957031 9.851562 C 32.867188 9.976562 32.816406 10.121094 32.804688 10.277344 C 32.804688 10.28125 32.804688 10.28125 32.804688 10.285156 C 32.804688 10.285156 32.804688 10.289062 32.804688 10.289062 Z M 34.664062 11.890625 C 34.582031 11.851562 34.507812 11.800781 34.4375 11.738281 C 34.394531 11.695312 34.359375 11.65625 34.328125 11.605469 C 34.324219 11.597656 34.316406 11.585938 34.3125 11.578125 C 34.730469 11.414062 35.171875 11.710938 35.464844 12.007812 C 35.476562 12.015625 35.484375 12.027344 35.492188 12.035156 C 35.214844 12.042969 34.917969 12.015625 34.664062 11.890625 Z M 35.605469 12.046875 C 35.523438 11.945312 35.429688 11.859375 35.332031 11.78125 C 35.140625 11.625 34.921875 11.496094 34.679688 11.460938 C 34.527344 11.4375 34.378906 11.460938 34.242188 11.523438 C 34.226562 11.527344 34.222656 11.539062 34.222656 11.546875 L 34.222656 11.554688 C 34.222656 11.554688 34.222656 11.558594 34.222656 11.5625 C 34.222656 11.5625 34.222656 11.566406 34.222656 11.566406 C 34.25 11.644531 34.308594 11.71875 34.363281 11.773438 C 34.523438 11.9375 34.738281 12.023438 34.953125 12.070312 C 35.160156 12.117188 35.371094 12.125 35.578125 12.113281 C 35.613281 12.109375 35.628906 12.070312 35.605469 12.046875 Z M 15.609375 9.75 C 15.808594 9.855469 16.003906 10 16.132812 10.199219 C 16.203125 10.308594 16.246094 10.433594 16.253906 10.566406 C 16.246094 10.566406 16.242188 10.566406 16.234375 10.566406 C 16.230469 10.566406 16.230469 10.5625 16.230469 10.5625 C 16.230469 10.5625 16.230469 10.5625 16.226562 10.5625 C 16.222656 10.5625 16.214844 10.5625 16.210938 10.5625 C 16.199219 10.558594 16.1875 10.554688 16.171875 10.554688 C 16.144531 10.546875 16.113281 10.535156 16.085938 10.523438 C 15.898438 10.449219 15.734375 10.285156 15.617188 10.117188 C 15.511719 9.96875 15.433594 9.804688 15.363281 9.636719 C 15.449219 9.667969 15.527344 9.707031 15.609375 9.75 Z M 15.785156 10.421875 C 15.902344 10.527344 16.046875 10.613281 16.207031 10.640625 C 16.234375 10.644531 16.265625 10.648438 16.292969 10.648438 C 16.296875 10.644531 16.300781 10.644531 16.304688 10.644531 C 16.316406 10.640625 16.332031 10.628906 16.332031 10.605469 C 16.328125 10.332031 16.1875 10.09375 15.988281 9.914062 C 15.824219 9.769531 15.632812 9.664062 15.433594 9.582031 C 15.394531 9.566406 15.351562 9.546875 15.308594 9.535156 C 15.28125 9.527344 15.25 9.554688 15.261719 9.582031 C 15.378906 9.894531 15.535156 10.207031 15.785156 10.421875 Z M 34.003906 11.28125 C 34.0625 11.34375 33.96875 11.441406 33.910156 11.375 C 33.859375 11.316406 33.804688 11.261719 33.746094 11.214844 C 33.265625 10.800781 32.582031 10.746094 31.984375 10.75 C 31.179688 10.753906 30.378906 10.847656 29.585938 10.964844 C 28.796875 11.078125 28.011719 11.207031 27.21875 11.28125 C 26.496094 11.351562 25.761719 11.371094 25.039062 11.289062 C 24.324219 11.210938 23.621094 11.03125 22.96875 10.710938 C 22.890625 10.671875 22.957031 10.554688 23.035156 10.589844 C 23.117188 10.632812 23.199219 10.667969 23.285156 10.707031 C 23.953125 10.992188 24.671875 11.136719 25.394531 11.183594 C 26.128906 11.234375 26.867188 11.191406 27.597656 11.105469 C 28.398438 11.011719 29.195312 10.875 29.992188 10.769531 C 30.761719 10.667969 31.542969 10.578125 32.320312 10.617188 C 32.925781 10.648438 33.582031 10.789062 34.003906 11.28125 Z M 14.757812 11.308594 C 14.757812 11.3125 14.757812 11.316406 14.757812 11.324219 C 14.757812 11.324219 14.753906 11.332031 14.753906 11.335938 C 14.753906 11.339844 14.753906 11.347656 14.753906 11.351562 C 14.75 11.355469 14.75 11.363281 14.75 11.371094 C 14.742188 11.402344 14.734375 11.433594 14.722656 11.464844 C 14.65625 11.667969 14.511719 11.835938 14.351562 11.96875 C 14.214844 12.082031 14.058594 12.171875 13.902344 12.25 C 13.929688 12.160156 13.960938 12.078125 14 11.992188 C 14.09375 11.78125 14.222656 11.570312 14.410156 11.429688 C 14.511719 11.351562 14.632812 11.304688 14.757812 11.289062 C 14.757812 11.292969 14.757812 11.300781 14.757812 11.308594 Z M 14.832031 11.238281 C 14.832031 11.222656 14.820312 11.203125 14.796875 11.207031 C 14.527344 11.222656 14.304688 11.378906 14.140625 11.59375 C 14.011719 11.765625 13.914062 11.96875 13.847656 12.175781 C 13.832031 12.222656 13.816406 12.265625 13.804688 12.3125 C 13.796875 12.347656 13.832031 12.371094 13.863281 12.355469 C 14.15625 12.222656 14.445312 12.042969 14.644531 11.777344 C 14.742188 11.648438 14.816406 11.492188 14.832031 11.328125 C 14.835938 11.300781 14.835938 11.273438 14.835938 11.246094 C 14.832031 11.242188 14.832031 11.242188 14.832031 11.238281 " fill-opacity="1" fill-rule="nonzero"/></g><g clip-path="url(#id12)"><path fill="rgb(64.709473%, 36.079407%, 11.369324%)" d="M 23.660156 11.214844 C 23.941406 11.476562 24.125 11.835938 23.980469 12.324219 C 23.488281 12.441406 23.160156 12.207031 22.941406 11.882812 C 22.960938 12.269531 22.84375 12.660156 22.410156 12.902344 C 21.984375 12.625 21.910156 12.21875 21.976562 11.824219 C 21.726562 12.117188 21.378906 12.308594 20.90625 12.15625 C 20.792969 11.648438 21.019531 11.308594 21.332031 11.082031 C 20.957031 11.105469 20.582031 10.984375 20.347656 10.53125 C 20.617188 10.089844 21.007812 10.015625 21.386719 10.085938 C 21.105469 9.824219 20.921875 9.464844 21.066406 8.976562 C 21.558594 8.859375 21.886719 9.09375 22.105469 9.417969 C 22.085938 9.03125 22.203125 8.640625 22.636719 8.398438 C 23.0625 8.675781 23.136719 9.082031 23.070312 9.472656 C 23.320312 9.183594 23.667969 8.992188 24.140625 9.144531 C 24.253906 9.648438 24.027344 9.992188 23.714844 10.21875 C 24.089844 10.195312 24.464844 10.316406 24.699219 10.769531 C 24.429688 11.210938 24.039062 11.285156 23.660156 11.214844 " fill-opacity="1" fill-rule="nonzero"/></g><g clip-path="url(#id13)"><path fill="rgb(90.19928%, 70.199585%, 39.99939%)" d="M 23.492188 10.746094 C 23.296875 10.804688 23.085938 10.820312 22.886719 10.78125 C 22.882812 10.777344 22.882812 10.78125 22.882812 10.78125 C 22.847656 10.773438 22.820312 10.804688 22.824219 10.835938 C 22.824219 10.835938 22.824219 10.839844 22.824219 10.839844 C 22.824219 10.84375 22.824219 10.84375 22.824219 10.84375 C 22.828125 10.859375 22.832031 10.867188 22.847656 10.875 C 22.960938 10.941406 23.0625 11.027344 23.144531 11.132812 C 23.234375 11.246094 23.296875 11.378906 23.335938 11.519531 C 23.183594 11.460938 23.039062 11.363281 22.921875 11.253906 C 22.847656 11.183594 22.78125 11.105469 22.726562 11.019531 C 22.695312 10.972656 22.617188 11 22.632812 11.0625 C 22.667969 11.191406 22.679688 11.324219 22.667969 11.460938 C 22.652344 11.605469 22.605469 11.746094 22.539062 11.875 C 22.515625 11.820312 22.5 11.761719 22.480469 11.703125 C 22.421875 11.5 22.410156 11.285156 22.449219 11.074219 C 22.457031 11.019531 22.382812 10.980469 22.355469 11.035156 C 22.292969 11.152344 22.207031 11.257812 22.105469 11.34375 C 21.996094 11.4375 21.867188 11.5 21.734375 11.542969 C 21.789062 11.386719 21.882812 11.234375 21.992188 11.109375 C 22.058594 11.035156 22.132812 10.96875 22.214844 10.910156 C 22.261719 10.878906 22.234375 10.796875 22.175781 10.8125 C 22.050781 10.851562 21.917969 10.863281 21.789062 10.851562 C 21.648438 10.835938 21.515625 10.785156 21.390625 10.71875 C 21.441406 10.691406 21.496094 10.675781 21.554688 10.65625 C 21.75 10.597656 21.960938 10.582031 22.160156 10.621094 C 22.214844 10.632812 22.253906 10.558594 22.199219 10.527344 C 22.085938 10.460938 21.984375 10.375 21.902344 10.269531 C 21.8125 10.15625 21.75 10.023438 21.710938 9.882812 C 21.863281 9.941406 22.007812 10.035156 22.128906 10.148438 C 22.199219 10.21875 22.265625 10.296875 22.320312 10.378906 C 22.351562 10.429688 22.429688 10.398438 22.414062 10.339844 C 22.378906 10.210938 22.367188 10.074219 22.378906 9.941406 C 22.394531 9.796875 22.441406 9.65625 22.507812 9.527344 C 22.53125 9.582031 22.550781 9.636719 22.566406 9.695312 C 22.625 9.898438 22.640625 10.117188 22.601562 10.324219 C 22.589844 10.382812 22.664062 10.421875 22.691406 10.367188 C 22.757812 10.25 22.839844 10.144531 22.941406 10.058594 C 23.050781 9.964844 23.179688 9.902344 23.3125 9.859375 C 23.257812 10.015625 23.164062 10.167969 23.058594 10.289062 C 22.988281 10.367188 22.914062 10.433594 22.832031 10.492188 C 22.785156 10.523438 22.8125 10.605469 22.871094 10.585938 C 22.996094 10.550781 23.128906 10.539062 23.257812 10.550781 C 23.398438 10.566406 23.53125 10.613281 23.65625 10.683594 C 23.605469 10.707031 23.550781 10.726562 23.492188 10.746094 Z M 23.789062 10.640625 C 23.5625 10.496094 23.304688 10.425781 23.046875 10.449219 C 23.210938 10.289062 23.339844 10.089844 23.414062 9.871094 C 23.421875 9.847656 23.433594 9.824219 23.4375 9.796875 C 23.441406 9.78125 23.4375 9.761719 23.425781 9.746094 C 23.386719 9.710938 23.3125 9.75 23.269531 9.761719 C 23.21875 9.777344 23.171875 9.796875 23.125 9.820312 C 23.042969 9.859375 22.964844 9.90625 22.894531 9.964844 C 22.828125 10.015625 22.773438 10.074219 22.71875 10.140625 C 22.726562 9.984375 22.707031 9.828125 22.664062 9.675781 C 22.636719 9.578125 22.601562 9.480469 22.554688 9.390625 C 22.535156 9.359375 22.484375 9.359375 22.464844 9.390625 C 22.324219 9.625 22.257812 9.890625 22.28125 10.160156 C 22.128906 9.988281 21.933594 9.859375 21.722656 9.777344 C 21.699219 9.769531 21.675781 9.761719 21.652344 9.753906 C 21.636719 9.75 21.613281 9.753906 21.601562 9.765625 C 21.570312 9.804688 21.605469 9.882812 21.617188 9.929688 C 21.632812 9.980469 21.652344 10.03125 21.671875 10.078125 C 21.710938 10.164062 21.757812 10.242188 21.8125 10.316406 C 21.863281 10.382812 21.917969 10.445312 21.984375 10.496094 C 21.832031 10.492188 21.679688 10.507812 21.535156 10.554688 C 21.441406 10.582031 21.34375 10.617188 21.257812 10.671875 C 21.226562 10.691406 21.226562 10.738281 21.257812 10.761719 C 21.484375 10.90625 21.742188 10.976562 22.003906 10.953125 C 21.835938 11.109375 21.707031 11.308594 21.632812 11.53125 C 21.625 11.554688 21.617188 11.578125 21.609375 11.601562 C 21.605469 11.621094 21.609375 11.640625 21.621094 11.652344 C 21.660156 11.6875 21.734375 11.652344 21.777344 11.636719 C 21.828125 11.621094 21.875 11.601562 21.921875 11.582031 C 22.003906 11.542969 22.082031 11.496094 22.152344 11.4375 C 22.21875 11.386719 22.273438 11.324219 22.328125 11.261719 C 22.320312 11.417969 22.339844 11.574219 22.382812 11.726562 C 22.410156 11.820312 22.445312 11.921875 22.492188 12.007812 C 22.515625 12.042969 22.5625 12.042969 22.582031 12.007812 C 22.722656 11.777344 22.789062 11.507812 22.765625 11.242188 C 22.917969 11.410156 23.113281 11.542969 23.324219 11.625 C 23.347656 11.632812 23.371094 11.640625 23.394531 11.648438 C 23.414062 11.652344 23.433594 11.648438 23.445312 11.632812 C 23.476562 11.59375 23.441406 11.515625 23.429688 11.472656 C 23.414062 11.421875 23.394531 11.371094 23.375 11.320312 C 23.335938 11.238281 23.289062 11.15625 23.234375 11.082031 C 23.183594 11.015625 23.128906 10.957031 23.066406 10.902344 C 23.214844 10.910156 23.367188 10.890625 23.511719 10.847656 C 23.605469 10.820312 23.703125 10.785156 23.789062 10.730469 C 23.820312 10.710938 23.820312 10.660156 23.789062 10.640625 " fill-opacity="1" fill-rule="nonzero"/></g><path fill="rgb(94.509888%, 89.019775%, 49.01886%)" d="M 22.75 10.699219 C 22.75 10.828125 22.652344 10.933594 22.527344 10.933594 C 22.402344 10.933594 22.300781 10.832031 22.296875 10.703125 C 22.296875 10.574219 22.398438 10.46875 22.519531 10.46875 C 22.644531 10.464844 22.746094 10.570312 22.75 10.699219 " fill-opacity="1" fill-rule="nonzero"/></svg>